<svg width="622" height="486" viewBox="0 0 622 486" fill="none" xmlns="http://www.w3.org/2000/svg">
<rect width="622" height="486" fill="white"/>
<g clip-path="url(#clip0)">
<path d="M30.2047 473.896C41.4523 486.253 56.0283 486.873 70.1175 485.355C72.0849 485.144 74.0384 484.895 75.9737 484.627C75.9854 484.622 76.0008 484.624 76.0127 484.619C76.1057 484.606 76.1989 484.593 76.2879 484.584C76.6873 484.527 77.087 484.471 77.4827 484.413L77.3892 484.685L77.0958 485.529C77.2012 485.247 77.3066 484.97 77.4121 484.688C77.4431 484.603 77.4778 484.518 77.5087 484.434C81.1586 474.747 84.7786 464.706 85.702 453.645C86.6565 442.165 83.9741 429.165 77.3486 423.523C76.4797 422.785 75.5595 422.197 74.6052 421.771C74.2089 421.587 73.8073 421.438 73.4012 421.306C70.9163 420.465 68.3294 420.648 65.9063 421.836C63.4833 423.025 61.3115 425.177 59.6145 428.07C57.9174 430.963 56.7562 434.493 56.2503 438.297C55.7444 442.101 55.9121 446.042 56.7361 449.715C51.1189 440.931 52.1667 426.681 54.1044 414.772C56.0458 402.863 58.396 389.611 54.4474 378.914C52.2524 372.96 48.3924 369.266 44.0605 367.778C43.9276 367.735 43.7949 367.691 43.6618 367.653C38.5005 366.059 33.1347 367.493 28.6363 371.668C20.3534 379.628 16.0992 394.72 14.7185 409.504C12.4938 433.295 17.4169 459.846 30.2047 473.896Z" fill="#3CC4B8"/>
<path d="M33.8362 435.759C34.1627 441.007 34.9893 446.154 36.2898 451.038C37.4884 455.359 39.1039 459.384 41.0829 462.977C45.1971 470.321 50.4075 476.05 56.2759 479.683C60.7146 482.456 65.3654 484.361 70.1175 485.355C72.0849 485.144 74.0384 484.895 75.9737 484.627C75.9854 484.622 76.0007 484.624 76.0126 484.62C76.1056 484.606 76.1988 484.593 76.2878 484.585C76.6873 484.527 77.0869 484.471 77.4826 484.413L77.3892 484.685L77.0958 485.529C77.2012 485.247 77.3066 484.97 77.412 484.688C77.4431 484.603 77.4778 484.518 77.5086 484.434C73.946 479.02 71.286 472.384 69.7516 465.08C68.2172 457.776 67.8531 450.018 68.6897 442.455C69.5653 434.946 71.5921 427.858 74.6051 421.771C74.2089 421.587 73.8073 421.438 73.4011 421.306C72.256 423.694 71.2516 426.231 70.3996 428.888C67.3423 438.364 66.367 449.089 67.6179 459.476C68.7808 468.876 71.6781 477.574 75.9696 484.55C75.5938 484.51 75.2144 484.463 74.8431 484.412C67.8101 483.503 60.7915 481.197 54.4126 476.474C48.96 472.535 44.2262 466.612 40.6282 459.226C36.7648 451.1 35.0625 441.327 34.77 431.393C34.545 420.691 35.2805 409.993 36.9562 399.595C38.5813 388.992 41.051 378.733 44.3103 369.045C44.3832 368.825 44.3979 368.571 44.3514 368.336C44.3049 368.1 44.2007 367.9 44.0604 367.778C43.9435 367.658 43.8002 367.613 43.6617 367.653C43.5939 367.681 43.531 367.731 43.4778 367.801C43.4245 367.87 43.3822 367.957 43.3541 368.055C42.952 369.252 42.5574 370.449 42.1778 371.66C39.0164 381.747 36.6889 392.393 35.2488 403.354C33.8508 413.929 33.1046 424.991 33.8362 435.759Z" fill="white"/>
<path d="M597.854 466.28C580.884 484.925 558.891 485.861 537.633 483.57C534.665 483.251 531.717 482.876 528.797 482.472C528.78 482.465 528.757 482.467 528.739 482.46C528.598 482.44 528.458 482.42 528.323 482.407C527.721 482.321 527.118 482.235 526.521 482.149L526.662 482.559L527.104 483.833C526.945 483.407 526.786 482.989 526.627 482.563C526.58 482.435 526.528 482.308 526.481 482.18C520.974 467.565 515.512 452.414 514.119 435.725C512.679 418.404 516.726 398.79 526.723 390.276C528.034 389.163 529.422 388.276 530.862 387.633C531.46 387.356 532.066 387.131 532.679 386.932C536.428 385.662 540.331 385.938 543.987 387.732C547.643 389.526 550.92 392.772 553.481 397.137C556.041 401.502 557.793 406.828 558.556 412.568C559.32 418.308 559.067 424.254 557.824 429.796C566.299 416.542 564.718 395.042 561.794 377.073C558.865 359.104 555.319 339.11 561.277 322.97C564.589 313.987 570.413 308.413 576.949 306.168C577.149 306.102 577.349 306.036 577.55 305.979C585.338 303.574 593.434 305.737 600.221 312.037C612.718 324.047 619.137 346.819 621.221 369.125C624.577 405.021 617.149 445.081 597.854 466.28Z" fill="#3CC4B8"/>
<path d="M592.375 408.739C591.883 416.657 590.636 424.422 588.673 431.791C586.865 438.312 584.427 444.384 581.441 449.806C575.342 460.995 567.277 469.407 558.518 475.013C551.821 479.196 544.803 482.071 537.633 483.57C534.665 483.251 531.717 482.876 528.797 482.472C528.78 482.465 528.757 482.467 528.739 482.46C528.598 482.44 528.458 482.42 528.323 482.407C527.721 482.321 527.118 482.236 526.521 482.149L526.662 482.559L527.104 483.833C526.945 483.407 526.786 482.989 526.627 482.563C526.58 482.435 526.528 482.308 526.481 482.18C531.857 474.012 535.87 463.999 538.185 452.979C540.501 441.958 541.05 430.253 539.788 418.842C538.467 407.512 535.408 396.818 530.862 387.633C531.46 387.356 532.066 387.131 532.679 386.932C534.407 390.534 535.922 394.362 537.208 398.371C541.821 412.669 543.292 428.851 541.405 444.524C539.65 458.706 535.279 471.83 528.804 482.356C529.371 482.295 529.943 482.224 530.503 482.147C541.115 480.775 551.705 477.297 561.329 470.171C569.556 464.227 576.699 455.29 582.127 444.146C587.956 431.886 590.525 417.14 590.966 402.152C591.434 386.106 590.069 369.778 587.668 354.173C585.216 338.176 581.489 322.696 576.572 308.08C576.462 307.748 576.44 307.365 576.51 307.009C576.58 306.653 576.737 306.352 576.949 306.168C577.125 305.987 577.341 305.919 577.55 305.979C577.653 306.021 577.748 306.097 577.828 306.202C577.908 306.307 577.972 306.438 578.014 306.586C578.621 308.391 579.216 310.198 579.789 312.025C584.559 327.244 588.071 343.307 590.244 359.846C592.353 375.801 593.479 392.492 592.375 408.739Z" fill="white"/>
<path d="M438.377 283.901H184.611C184.08 283.899 183.57 283.576 183.194 283.003C182.818 282.43 182.606 281.653 182.605 280.842V3.05974C182.606 2.2489 182.818 1.47176 183.194 0.898347C183.57 0.324933 184.079 0.0019285 184.611 0H438.376C438.908 0.0018482 439.418 0.324676 439.794 0.897891C440.17 1.47111 440.381 2.24806 440.383 3.05883V280.841C440.382 281.652 440.17 282.429 439.794 283.002C439.418 283.576 438.909 283.899 438.377 283.901V283.901ZM184.612 1.86943C184.405 1.87021 184.206 1.99598 184.06 2.21921C183.914 2.44244 183.831 2.74498 183.831 3.06065V280.841C183.832 281.157 183.914 281.459 184.061 281.682C184.207 281.905 184.405 282.031 184.612 282.032H438.376C438.583 282.031 438.781 281.905 438.928 281.682C439.074 281.458 439.156 281.156 439.157 280.841V3.05974C439.156 2.74422 439.074 2.44191 438.928 2.21887C438.781 1.99583 438.583 1.8702 438.376 1.86943H184.612Z" fill="#3F3D56"/>
<path d="M424.365 23.8574V221.265C424.365 221.917 424.281 222.563 424.117 223.166C423.954 223.769 423.714 224.317 423.411 224.778C423.109 225.24 422.75 225.606 422.355 225.856C421.959 226.106 421.536 226.234 421.108 226.235H201.363C201.207 226.236 201.05 226.218 200.896 226.179C200.121 226.009 199.412 225.418 198.899 224.516C198.386 223.613 198.104 222.459 198.104 221.265V23.8574C198.104 22.5398 198.447 21.2759 199.058 20.3438C199.668 19.4118 200.497 18.8879 201.361 18.8875H421.106C421.534 18.8872 421.957 19.0155 422.353 19.265C422.748 19.5145 423.107 19.8803 423.41 20.3415C423.712 20.8027 423.953 21.3503 424.116 21.953C424.28 22.5557 424.365 23.2017 424.365 23.8541V23.8574Z" fill="#F2F2F2"/>
<path d="M253.495 136.262C269.286 136.262 282.087 116.74 282.087 92.6596C282.087 68.5787 269.286 49.0572 253.495 49.0572C237.705 49.0572 224.904 68.5787 224.904 92.6596C224.904 116.74 237.705 136.262 253.495 136.262Z" fill="#FF6584"/>
<path d="M343.155 227.026H202.894C202.718 227.029 202.543 227.008 202.37 226.963L268.707 51.7306C269.112 50.6392 269.699 49.7314 270.409 49.0997C271.12 48.468 271.927 48.1352 272.749 48.1352C273.572 48.1352 274.379 48.468 275.089 49.0997C275.8 49.7314 276.387 50.6392 276.792 51.7306L321.312 169.325L323.445 174.952L343.155 227.026Z" fill="black"/>
<path opacity="0.2" d="M343.155 227.026H295.266L318.774 174.952L320.467 171.201L321.313 169.325L323.446 174.952L343.155 227.026Z" fill="black"/>
<path d="M421.251 227.026H299.937L323.445 174.952L325.137 171.201L355.771 103.338C357.779 98.8901 362.61 98.6132 364.971 102.499C365.13 102.764 365.277 103.044 365.413 103.338L421.251 227.026Z" fill="black"/>
<path d="M190.767 278.972C192.917 278.972 194.66 276.314 194.66 273.036C194.66 269.758 192.917 267.101 190.767 267.101C188.618 267.101 186.875 269.758 186.875 273.036C186.875 276.314 188.618 278.972 190.767 278.972Z" fill="#3CC4B8"/>
<path d="M190.767 17.2511C192.917 17.2511 194.66 14.5937 194.66 11.3156C194.66 8.03746 192.917 5.38004 190.767 5.38004C188.618 5.38004 186.875 8.03746 186.875 11.3156C186.875 14.5937 188.618 17.2511 190.767 17.2511Z" fill="#3CC4B8"/>
<path d="M432.872 17.2511C435.022 17.2511 436.764 14.5937 436.764 11.3156C436.764 8.03746 435.022 5.38004 432.872 5.38004C430.722 5.38004 428.98 8.03746 428.98 11.3156C428.98 14.5937 430.722 17.2511 432.872 17.2511Z" fill="#3CC4B8"/>
<path d="M432.872 278.972C435.022 278.972 436.764 276.314 436.764 273.036C436.764 269.758 435.022 267.101 432.872 267.101C430.722 267.101 428.98 269.758 428.98 273.036C428.98 276.314 430.722 278.972 432.872 278.972Z" fill="#3CC4B8"/>
<path d="M135.321 473.682H142.835L146.41 429.481L135.319 429.482L135.321 473.682Z" fill="#A0616A"/>
<path d="M157.327 484.322L133.711 484.323L133.71 470.408L148.202 470.407C150.622 470.407 152.943 471.873 154.654 474.483C156.366 477.092 157.327 480.631 157.327 484.322V484.322V484.322Z" fill="#2F2E41"/>
<path d="M107.126 473.682H114.64L118.215 429.481L107.125 429.482L107.126 473.682Z" fill="#A0616A"/>
<path d="M129.133 484.322L105.516 484.323L105.516 470.408L120.008 470.407C122.428 470.407 124.749 471.873 126.46 474.483C128.171 477.092 129.133 480.631 129.133 484.322V484.322V484.322Z" fill="#2F2E41"/>
<path d="M108.044 342.038C108.854 341.244 109.539 340.189 110.052 338.947C110.566 337.705 110.894 336.307 111.015 334.85C111.135 333.394 111.045 331.915 110.75 330.517C110.455 329.12 109.963 327.838 109.308 326.762L114.256 219.683L100.004 221.791L99.6121 326.653C98.4998 328.451 97.8584 330.808 97.8096 333.279C97.7608 335.749 98.3079 338.161 99.3472 340.057C100.387 341.954 101.846 343.203 103.449 343.568C105.052 343.933 106.687 343.389 108.044 342.038L108.044 342.038Z" fill="#A0616A"/>
<path d="M135.545 451.42C134.871 451.417 134.22 451.038 133.716 450.356C133.212 449.673 132.888 448.734 132.806 447.713L128.438 392.002C128.377 391.217 128.131 390.493 127.747 389.963C127.362 389.434 126.865 389.134 126.347 389.119C125.83 389.104 125.326 389.376 124.929 389.884C124.532 390.392 124.269 391.102 124.189 391.882L118.686 445.224C118.587 446.216 118.257 447.12 117.757 447.772C117.257 448.424 116.62 448.781 115.962 448.777H107.044C106.68 448.777 106.319 448.667 105.983 448.453C105.647 448.24 105.342 447.927 105.086 447.533C104.83 447.139 104.627 446.672 104.49 446.158C104.352 445.644 104.283 445.094 104.286 444.539L108.542 326.265C108.544 325.258 108.783 324.286 109.217 323.527C109.651 322.768 110.25 322.273 110.904 322.134L143.998 314.807C144.391 314.72 144.792 314.764 145.173 314.935C145.554 315.107 145.907 315.401 146.206 315.799C146.506 316.197 146.745 316.69 146.908 317.242C147.072 317.794 147.155 318.394 147.152 319L146.575 446.642C146.57 447.717 146.295 448.75 145.806 449.525C145.318 450.301 144.653 450.762 143.948 450.813L135.676 451.415C135.632 451.418 135.588 451.42 135.545 451.42Z" fill="#2F2E41"/>
<path d="M118.387 330.733C115.204 330.714 112.047 329.857 109.055 328.199C108.548 327.914 108.108 327.407 107.789 326.74C107.471 326.074 107.289 325.279 107.267 324.456C106.981 314.794 105.311 265.06 100.448 234.724C99.5031 228.773 99.7342 222.528 101.113 216.777C102.491 211.026 104.955 206.026 108.193 202.408C108.455 202.121 108.722 201.839 108.993 201.563C111.806 198.708 115.05 196.998 118.419 196.595C121.787 196.193 125.167 197.111 128.236 199.263C131.408 201.427 134.163 204.792 136.241 209.039C138.318 213.286 139.648 218.273 140.105 223.525L148.034 313.306C148.085 313.867 148.061 314.438 147.963 314.985C147.865 315.531 147.695 316.042 147.464 316.485C147.237 316.925 146.955 317.291 146.633 317.56C146.311 317.829 145.957 317.995 145.592 318.049C142.845 318.467 137.146 320.091 129.852 326.27C126.345 329.233 122.397 330.77 118.387 330.733V330.733Z" fill="#3CC4B8"/>
<path d="M108.693 256.312L95.6435 250.916C94.938 250.623 94.3374 249.916 93.9737 248.948C93.6099 247.981 93.5127 246.833 93.7032 245.756L98.2907 219.953C98.782 217.189 99.927 214.801 101.505 213.248C103.083 211.695 104.982 211.088 106.835 211.544C108.689 212 110.367 213.487 111.544 215.717C112.722 217.948 113.317 220.764 113.213 223.624L112.169 252.484C112.146 253.11 112.032 253.72 111.835 254.27C111.638 254.82 111.363 255.296 111.03 255.663C110.697 256.03 110.314 256.278 109.91 256.391C109.505 256.503 109.09 256.476 108.693 256.312V256.312Z" fill="#3CC4B8"/>
<path d="M123.22 187.072C131.534 187.072 138.274 176.794 138.274 164.115C138.274 151.436 131.534 141.157 123.22 141.157C114.905 141.157 108.166 151.436 108.166 164.115C108.166 176.794 114.905 187.072 123.22 187.072Z" fill="#A0616A"/>
<path d="M177.772 209.219C177.697 209.724 177.648 210.236 177.625 210.752L151.296 233.917L144.896 228.298L138.073 241.919L151.764 256.8L181.802 220.662C183.027 221.353 184.362 221.459 185.627 220.966C186.893 220.473 188.03 219.404 188.888 217.901C189.745 216.398 190.283 214.533 190.428 212.553C190.573 210.573 190.32 208.573 189.702 206.818C189.084 205.063 188.13 203.637 186.967 202.729C185.805 201.82 184.488 201.474 183.193 201.734C181.898 201.995 180.686 202.851 179.717 204.188C178.749 205.525 178.07 207.28 177.772 209.219Z" fill="#A0616A"/>
<path d="M149.114 235.034L137.772 246.259C137.158 246.865 136.412 247.075 135.696 246.843C134.981 246.61 134.355 245.955 133.957 245.02L124.414 222.594C123.391 220.192 122.988 217.298 123.283 214.47C123.577 211.641 124.547 209.079 126.007 207.277C127.466 205.476 129.312 204.562 131.187 204.712C133.062 204.862 134.834 206.066 136.162 208.091L149.563 228.532C149.853 228.975 150.075 229.512 150.212 230.102C150.35 230.693 150.398 231.323 150.355 231.946C150.312 232.57 150.178 233.17 149.964 233.705C149.749 234.239 149.458 234.693 149.114 235.034H149.114Z" fill="#3CC4B8"/>
<path d="M112.567 182.278C115.375 186.84 120.591 184.391 120.956 178.158C120.985 177.675 120.983 177.188 120.95 176.704C120.761 173.944 119.715 171.437 119.966 168.522C120.023 167.797 120.2 167.105 120.481 166.514C122.719 161.943 127.972 168.558 130.084 164.42C131.379 161.884 129.857 157.889 130.851 155.054C132.163 151.312 136.048 153.158 138.484 151.109C141.195 148.828 141.033 142.486 139.248 138.628C137.072 133.923 133.257 131.412 129.489 131.05C125.721 130.688 121.978 132.242 118.461 134.332C114.464 136.708 110.5 139.991 108.041 145.35C105.049 151.868 104.762 160.631 106.258 168.253C107.168 172.889 110.273 178.552 112.567 182.278Z" fill="#2F2E41"/>
<path d="M234.137 486H0.612923C0.450366 486 0.294466 485.902 0.179521 485.726C0.0645752 485.551 0 485.313 0 485.065C0 484.817 0.0645752 484.58 0.179521 484.404C0.294466 484.229 0.450366 484.131 0.612923 484.131H234.137C234.299 484.131 234.455 484.229 234.57 484.404C234.685 484.58 234.749 484.817 234.749 485.065C234.749 485.313 234.685 485.551 234.57 485.726C234.455 485.902 234.299 486 234.137 486Z" fill="#3F3D56"/>
<path d="M617.826 486H384.303C384.14 486 383.984 485.902 383.869 485.726C383.754 485.551 383.69 485.313 383.69 485.065C383.69 484.817 383.754 484.58 383.869 484.404C383.984 484.229 384.14 484.131 384.303 484.131H617.826C617.989 484.131 618.145 484.229 618.26 484.404C618.375 484.58 618.439 484.817 618.439 485.065C618.439 485.313 618.375 485.551 618.26 485.726C618.145 485.902 617.989 486 617.826 486Z" fill="#3F3D56"/>
<path d="M512.053 309.666C511.223 309.036 510.494 308.137 509.917 307.031C509.34 305.925 508.929 304.64 508.713 303.266C508.496 301.891 508.481 300.462 508.666 299.077C508.851 297.692 509.234 296.387 509.786 295.252L505.046 224.577H515.289L519.056 293.587C520.245 295.128 521.022 297.28 521.24 299.637C521.457 301.993 521.101 304.389 520.237 306.371C519.374 308.352 518.064 309.783 516.556 310.39C515.047 310.997 513.445 310.74 512.053 309.666V309.666Z" fill="#A0616A"/>
<path d="M502.647 185.573C510.651 185.573 517.14 175.678 517.14 163.471C517.14 151.265 510.651 141.37 502.647 141.37C494.643 141.37 488.155 151.265 488.155 163.471C488.155 175.678 494.643 185.573 502.647 185.573Z" fill="#A0616A"/>
<path d="M499.349 265.641L477.72 258.438C477.151 258.247 476.639 257.777 476.263 257.1C475.886 256.423 475.665 255.577 475.634 254.69C475.385 247.33 475.205 228.289 478.923 210.513C479.641 207.105 480.8 203.951 482.331 201.238C483.863 198.525 485.735 196.308 487.838 194.718C489.941 193.128 492.232 192.198 494.575 191.981C496.918 191.765 499.266 192.268 501.479 193.46V193.46C503.815 194.711 505.951 196.702 507.746 199.301C509.542 201.9 510.957 205.048 511.899 208.54C512.841 212.031 513.288 215.787 513.21 219.56C513.133 223.334 512.534 227.04 511.452 230.435C506.655 245.456 503.634 256.334 502.473 262.767C502.293 263.765 501.868 264.619 501.287 265.154C500.706 265.689 500.012 265.863 499.349 265.641V265.641Z" fill="#3CC4B8"/>
<path d="M478.973 475.608L471.739 475.607L468.298 433.055H478.974L478.973 475.608Z" fill="#A0616A"/>
<path d="M466.572 472.455H480.523V485.851H457.787C457.787 484.092 458.015 482.35 458.456 480.725C458.897 479.1 459.544 477.623 460.36 476.379C461.176 475.135 462.144 474.148 463.21 473.475C464.276 472.802 465.418 472.455 466.572 472.455V472.455Z" fill="#2F2E41"/>
<path d="M551.31 461.31L544.971 466.625L528.511 431.866L537.867 424.022L551.31 461.31Z" fill="#A0616A"/>
<path d="M539.447 467.659L551.672 457.409L555.904 469.148L535.981 485.852C535.425 484.311 535.074 482.617 534.947 480.869C534.821 479.12 534.921 477.351 535.243 475.661C535.565 473.972 536.102 472.396 536.823 471.023C537.544 469.65 538.436 468.507 539.447 467.659V467.659Z" fill="#2F2E41"/>
<path d="M479.105 451.978L467.968 450.67C467.345 450.599 466.758 450.195 466.312 449.528C465.865 448.861 465.588 447.975 465.529 447.026C463.942 421.78 456.978 293.845 475.812 254.456L475.864 254.347L475.949 254.299C476.117 254.205 492.913 245.071 502.55 261.81C502.852 262.342 503.058 262.985 503.148 263.676C503.238 264.367 503.208 265.081 503.061 265.749L502.693 267.431C502.588 267.907 502.56 268.416 502.611 268.913C502.662 269.41 502.79 269.88 502.986 270.286C505.66 275.799 514.661 297.034 518.199 338.79C518.221 339.056 518.266 339.317 518.332 339.565L544.451 437.413C544.584 437.913 544.651 438.448 544.646 438.987C544.642 439.527 544.567 440.06 544.426 440.554C544.285 441.049 544.081 441.496 543.825 441.868C543.569 442.241 543.267 442.532 542.937 442.724L534.718 447.499C534.12 447.841 533.46 447.845 532.86 447.509C532.26 447.173 531.759 446.52 531.448 445.668L493.743 341.347C493.593 340.932 493.361 340.6 493.079 340.398C492.798 340.196 492.482 340.135 492.177 340.223C491.871 340.312 491.592 340.545 491.378 340.89C491.165 341.235 491.029 341.674 490.989 342.144L481.942 448.461C481.859 449.436 481.546 450.332 481.062 450.981C480.578 451.63 479.956 451.988 479.311 451.989C479.243 451.989 479.174 451.986 479.105 451.978Z" fill="#2F2E41"/>
<path d="M446.305 189.144C446.378 189.63 446.425 190.124 446.447 190.62L471.794 212.921L477.955 207.512L484.523 220.625L474.227 231.817C473.395 232.721 472.393 233.189 471.372 233.151C470.351 233.113 469.365 232.571 468.563 231.606L442.425 200.16C441.246 200.826 439.961 200.928 438.742 200.454C437.524 199.979 436.429 198.95 435.603 197.503C434.777 196.056 434.26 194.26 434.12 192.354C433.98 190.447 434.223 188.521 434.819 186.832C435.414 185.142 436.332 183.768 437.452 182.894C438.571 182.02 439.839 181.686 441.086 181.937C442.333 182.188 443.5 183.012 444.433 184.3C445.365 185.587 446.018 187.277 446.305 189.145L446.305 189.144Z" fill="#A0616A"/>
<path d="M472.143 210.692C472.219 210.121 472.375 209.583 472.6 209.113C472.825 208.644 473.114 208.253 473.447 207.969L485.079 198.051C486.625 196.233 488.58 195.423 490.516 195.8C492.452 196.176 494.212 197.708 495.408 200.059C496.605 202.411 497.142 205.39 496.901 208.343C496.66 211.297 495.661 213.985 494.123 215.817L484.849 230.504C484.584 230.923 484.263 231.251 483.908 231.463C483.553 231.676 483.172 231.77 482.791 231.738C482.41 231.707 482.038 231.55 481.7 231.279C481.363 231.008 481.067 230.63 480.834 230.169L472.642 213.977C472.408 213.516 472.243 212.984 472.157 212.417C472.071 211.85 472.066 211.262 472.143 210.692V210.692Z" fill="#3CC4B8"/>
<path d="M502.252 241.271C501.955 240.905 501.714 240.446 501.544 239.925C501.374 239.404 501.28 238.833 501.268 238.252L500.851 217.938C500.504 215.008 500.932 211.988 502.043 209.539C503.154 207.091 504.856 205.414 506.776 204.876C508.696 204.339 510.678 204.984 512.286 206.671C513.895 208.359 514.999 210.95 515.357 213.876L519.635 233.194C519.757 233.745 519.8 234.33 519.76 234.909C519.721 235.488 519.6 236.047 519.406 236.548C519.212 237.049 518.949 237.48 518.636 237.813C518.323 238.145 517.967 238.371 517.591 238.474L504.394 242.108C504.018 242.212 503.633 242.191 503.263 242.046C502.893 241.902 502.548 241.638 502.252 241.271V241.271Z" fill="#3CC4B8"/>
<path d="M500.353 158.388C496.628 162.276 491.738 166.272 487.933 162.132C486.743 160.75 485.879 158.817 485.469 156.623C485.059 154.429 485.127 152.092 485.661 149.961C487.483 142.017 492.488 138.519 497.274 135.839C503.496 132.353 510.27 129.581 516.693 132.077C523.117 134.573 528.793 144.056 527.634 154.009C526.701 162.012 521.751 168.672 522.453 176.73C523.161 184.839 529.141 189.108 534.421 190.558C539.701 192.007 545.609 192.473 549.403 198.256C554.243 205.634 553.035 218.821 548.48 226.61C543.926 234.4 537.052 237.93 530.392 240.331C521.568 243.511 512.024 245.182 503.643 239.904C495.263 234.626 488.741 220.419 491.169 207.096C492.194 201.468 494.61 196.712 496.945 192.082C499.279 187.452 501.643 182.61 502.534 176.93C503.276 172.196 502.727 166.699 500.668 163.148C500.294 162.527 500.058 161.74 499.995 160.902C499.932 160.063 500.045 159.216 500.318 158.481L500.353 158.388Z" fill="#2F2E41"/>
</g>
<defs>
<clipPath id="clip0">
<rect width="622" height="486" fill="white"/>
</clipPath>
</defs>
</svg>
