<svg width="622" height="486" viewBox="0 0 622 486" fill="none" xmlns="http://www.w3.org/2000/svg">
<rect width="622" height="486" fill="white"/>
<g clip-path="url(#clip0)">
<path d="M195.601 254.867L201.884 273.919L210.41 266.829L205.922 251.765L195.601 254.867Z" fill="#FFB9B9"/>
<path d="M114.824 173.784L117.068 203.47L171.368 204.799L195.152 258.411L208.166 253.094C208.166 253.094 193.357 202.584 186.625 186.633C179.894 170.683 154.315 182.202 154.315 182.202L152.071 177.772L114.824 173.784Z" fill="#2F2E41"/>
<path d="M199.191 270.374C199.191 270.374 200.088 284.553 201.434 285.439C202.781 286.325 213.102 284.553 213.102 284.553C213.102 284.553 216.203 285.233 228.809 281.894C242.98 278.141 227.014 272.59 227.014 272.59C227.014 272.59 216.692 265.943 212.205 262.842C207.717 259.74 204.576 266.387 204.576 266.387C205.473 269.045 199.191 270.374 199.191 270.374Z" fill="#2F2E41"/>
<path d="M558.231 327.783L559.66 377.15L574.898 434.979C574.898 434.979 571.565 444.853 573.946 447.203C576.327 449.554 587.279 453.786 587.279 453.786L578.231 330.604L558.231 327.783Z" fill="#2F2E41"/>
<path d="M591.315 446.962C591.315 446.962 596.749 458.766 589.141 459.839C581.533 460.912 546.393 463.774 548.566 457.693C550.74 451.612 577.186 445.889 577.186 445.889L591.315 446.962Z" fill="#2F2E41"/>
<path d="M611.565 284.058C611.565 284.058 605.85 314.618 602.041 319.79C598.231 324.962 603.946 362.575 603.946 362.575C603.946 362.575 612.517 416.643 608.708 425.106C604.898 433.569 605.85 430.748 606.327 435.449C606.803 440.151 607.755 443.912 606.327 448.144C604.898 452.375 604.898 451.905 604.422 454.256C603.946 456.606 604.422 469.301 604.422 469.301C604.422 469.301 583.946 476.353 580.612 466.01C580.612 466.01 585.374 459.427 583.946 454.256C582.456 449.051 581.656 443.678 581.565 438.27V428.397L559.66 347.53L554.422 318.38C554.422 318.38 555.85 288.76 561.089 285.939C566.327 283.118 611.565 284.058 611.565 284.058Z" fill="#2F2E41"/>
<path d="M602.993 466.95C602.993 466.95 610.136 482.465 600.136 483.876C590.136 485.286 543.946 489.047 546.803 481.055C549.66 473.062 584.422 465.54 584.422 465.54L602.993 466.95Z" fill="#2F2E41"/>
<path d="M593.941 148.672C604.46 148.672 612.988 140.252 612.988 129.866C612.988 119.479 604.46 111.059 593.941 111.059C583.421 111.059 574.893 119.479 574.893 129.866C574.893 140.252 583.421 148.672 593.941 148.672Z" fill="#A0616A"/>
<path d="M607.325 138.176L606.971 162.193L583.618 162.271C583.618 162.271 589.545 143.47 586.89 139.539C584.236 135.607 607.325 138.176 607.325 138.176Z" fill="#A0616A"/>
<path d="M572.517 175.451C572.517 175.451 589.184 154.294 602.041 163.227C614.898 172.16 619.66 193.318 619.66 193.318L616.803 252.558C616.803 252.558 609.66 261.02 613.946 266.662C618.231 272.304 620.612 270.894 617.279 275.125C613.946 279.357 610.136 282.648 611.565 284.058C612.993 285.469 610.136 286.409 610.136 286.409L559.66 287.819C559.66 287.819 561.089 285.939 556.803 280.297C552.517 274.655 557.755 267.132 556.803 264.312C555.85 261.491 554.898 264.782 554.422 258.199C553.946 251.617 572.517 175.451 572.517 175.451Z" fill="#3F3D56"/>
<path d="M577.279 296.752C577.279 296.752 576.327 308.506 569.184 310.387C566.505 311.092 564.496 309.748 563.032 307.792C561.664 305.918 560.897 303.681 560.83 301.372C560.764 299.062 561.4 296.786 562.658 294.838L564.422 292.051L577.279 296.752Z" fill="#A0616A"/>
<path d="M621.327 151.708C621.327 151.708 621.803 161.112 621.327 162.522C620.85 163.933 620.374 165.343 621.327 166.754C622.279 168.164 621.803 172.866 620.85 173.336C619.898 173.806 622.755 178.037 621.803 180.858C620.85 183.679 619.898 184.62 619.422 185.56C618.946 186.5 618.179 188.185 618.179 188.185C618.179 188.185 604.184 158.761 592.755 165.813C581.327 172.865 572.279 175.216 572.279 175.216C572.279 175.216 578.469 142.305 621.327 151.708Z" fill="#3F3D56"/>
<path d="M600.612 173.571C600.612 173.571 615.85 174.981 614.898 194.728C613.946 214.475 616.327 245.505 616.327 245.505C616.327 245.505 590.136 284.998 585.85 287.819C581.565 290.64 581.088 290.17 581.565 292.521C582.041 294.872 582.517 296.752 580.612 298.633C579.488 299.751 578.204 300.701 576.803 301.454C576.803 301.454 561.565 296.282 562.993 291.581C564.422 286.879 571.088 279.357 571.088 279.357C571.088 279.357 582.517 261.02 582.993 258.199C583.469 255.378 583.469 255.849 584.898 254.438C586.326 253.028 590.136 247.386 590.136 244.565V235.632L586.144 187.894C585.963 185.949 586.2 183.989 586.841 182.142C587.481 180.295 588.511 178.602 589.861 177.176C592.127 174.835 595.553 172.971 600.612 173.571Z" fill="#3F3D56"/>
<path d="M581.657 115.363C580.416 115.702 579.108 115.731 577.853 115.447C576.597 115.164 575.433 114.576 574.465 113.737C572.603 111.99 571.978 108.965 573.302 106.793C574.446 104.917 576.67 104 578.787 103.348C583.456 101.911 588.318 101.179 593.209 101.176C595.54 101.175 597.975 101.372 599.97 102.563C600.957 103.152 601.793 103.962 602.769 104.569C604.564 105.685 606.719 106.056 608.69 106.832C610.704 107.641 612.52 108.867 614.013 110.428C615.506 111.989 616.642 113.849 617.344 115.881C617.796 117.26 618.079 118.687 618.186 120.132C618.508 124.09 617.799 128.064 616.128 131.676C613.471 137.396 608.413 142.206 607.699 148.459C604.977 146.203 604.179 142.418 602.07 139.593C600.5 137.504 598.26 136.003 595.714 135.334C595.003 135.241 594.334 134.946 593.789 134.484C593.423 133.984 593.213 133.388 593.187 132.772L591.88 123.481C591.614 121.59 591.255 119.524 589.785 118.283C588.863 117.606 587.795 117.148 586.665 116.946C583.99 116.29 581.266 115.851 578.519 115.635" fill="#2F2E41"/>
<path opacity="0.1" d="M614.011 252.221L587.279 286.472C587.279 286.472 611.894 266.157 614.011 252.221Z" fill="black"/>
<path opacity="0.1" d="M588.352 214.299L588.605 246.647L573.08 269.64L585.782 243.86L588.352 214.299Z" fill="black"/>
<path d="M425.544 198.95H263.633V195.655H190.216V198.95H27.6377C24.7331 198.95 21.9474 200.089 19.8934 202.117C17.8395 204.145 16.6856 206.895 16.6856 209.763V428.661C16.6856 431.529 17.8395 434.28 19.8934 436.308C21.9474 438.335 24.7331 439.475 27.6377 439.475H425.544C426.983 439.475 428.407 439.195 429.736 438.652C431.064 438.108 432.272 437.312 433.289 436.308C434.306 435.303 435.112 434.111 435.663 432.799C436.213 431.487 436.497 430.081 436.497 428.661V209.763C436.497 208.343 436.213 206.937 435.663 205.625C435.112 204.313 434.306 203.121 433.289 202.117C432.272 201.113 431.064 200.316 429.736 199.773C428.407 199.229 426.983 198.95 425.544 198.95V198.95Z" fill="black"/>
<path opacity="0.1" d="M421.813 218.06H31.369V435.521H421.813V218.06Z" fill="black"/>
<path d="M226.257 212.129C228.469 212.129 230.262 210.359 230.262 208.175C230.262 205.992 228.469 204.221 226.257 204.221C224.046 204.221 222.253 205.992 222.253 208.175C222.253 210.359 224.046 212.129 226.257 212.129Z" fill="#3CC4B8"/>
<path d="M420.003 217.951H32.0245V435.332H420.003V217.951Z" fill="#E6E6E6"/>
<path d="M408.909 232.805H43.1187V421.632H408.909V232.805Z" fill="white"/>
<path d="M170.347 252.397H76.3557V402.04H170.347V252.397Z" fill="#E6E6E6"/>
<path d="M264.897 252.397H186.571V293.588H264.897V252.397Z" fill="#3CC4B8"/>
<path d="M264.897 305.059H186.571V349.378H264.897V305.059Z" fill="#E6E6E6"/>
<path d="M264.897 360.849H186.571V402.04H264.897V360.849Z" fill="#E6E6E6"/>
<path d="M375.672 252.397H281.681V317.611H375.672V252.397Z" fill="#E6E6E6"/>
<path d="M375.672 336.826H281.681V402.04H375.672V336.826Z" fill="#3CC4B8"/>
<path d="M447.459 431.567H409.355V428.856C409.355 428.786 409.34 428.716 409.313 428.651C409.286 428.585 409.246 428.526 409.195 428.476C409.145 428.426 409.085 428.387 409.018 428.36C408.952 428.333 408.882 428.319 408.81 428.319H395.746C395.674 428.319 395.603 428.333 395.537 428.36C395.471 428.387 395.411 428.426 395.361 428.476C395.31 428.526 395.27 428.585 395.243 428.651C395.215 428.716 395.201 428.786 395.201 428.856V431.567H387.036V428.856C387.036 428.786 387.022 428.716 386.995 428.651C386.967 428.585 386.927 428.526 386.877 428.476C386.826 428.426 386.766 428.387 386.7 428.36C386.634 428.333 386.563 428.319 386.492 428.319H373.427C373.356 428.319 373.285 428.333 373.219 428.36C373.153 428.387 373.093 428.426 373.042 428.476C372.992 428.526 372.952 428.585 372.924 428.651C372.897 428.716 372.883 428.786 372.883 428.856V428.856V431.567H364.717V428.856C364.717 428.786 364.703 428.716 364.676 428.651C364.649 428.585 364.609 428.526 364.558 428.476C364.507 428.426 364.447 428.387 364.381 428.36C364.315 428.333 364.245 428.319 364.173 428.319H351.109C351.037 428.319 350.966 428.333 350.9 428.36C350.834 428.387 350.774 428.426 350.724 428.476C350.673 428.526 350.633 428.585 350.606 428.651C350.578 428.716 350.564 428.786 350.564 428.856V431.567H342.399V428.856C342.399 428.786 342.385 428.716 342.358 428.651C342.33 428.585 342.29 428.526 342.239 428.476C342.189 428.426 342.129 428.387 342.063 428.36C341.997 428.333 341.926 428.319 341.855 428.319H328.79C328.719 428.319 328.648 428.333 328.582 428.36C328.516 428.387 328.456 428.426 328.405 428.476C328.355 428.526 328.315 428.585 328.287 428.651C328.26 428.716 328.246 428.786 328.246 428.856V428.856V431.567H320.08V428.856C320.08 428.786 320.066 428.716 320.039 428.651C320.012 428.585 319.972 428.526 319.921 428.476C319.87 428.426 319.81 428.387 319.744 428.36C319.678 428.333 319.608 428.319 319.536 428.319H306.472C306.4 428.319 306.329 428.333 306.263 428.36C306.197 428.387 306.137 428.426 306.087 428.476C306.036 428.526 305.996 428.585 305.969 428.651C305.941 428.716 305.927 428.786 305.927 428.856V431.567H297.762V428.856C297.762 428.786 297.748 428.716 297.72 428.651C297.693 428.585 297.653 428.526 297.602 428.476C297.552 428.426 297.492 428.387 297.426 428.36C297.36 428.333 297.289 428.319 297.218 428.319H284.153C284.082 428.319 284.011 428.333 283.945 428.36C283.879 428.387 283.819 428.426 283.768 428.476C283.718 428.526 283.677 428.585 283.65 428.651C283.623 428.716 283.609 428.786 283.609 428.856V431.567H275.443V428.856C275.443 428.786 275.429 428.716 275.402 428.651C275.375 428.585 275.334 428.526 275.284 428.476C275.233 428.426 275.173 428.387 275.107 428.36C275.041 428.333 274.97 428.319 274.899 428.319H172.56C172.416 428.319 172.278 428.376 172.175 428.476C172.073 428.577 172.016 428.714 172.016 428.856V428.856V431.567H163.851V428.856C163.851 428.786 163.837 428.716 163.809 428.651C163.782 428.585 163.742 428.526 163.691 428.476C163.641 428.426 163.581 428.387 163.515 428.36C163.449 428.333 163.378 428.319 163.306 428.319H150.242C150.097 428.319 149.959 428.376 149.857 428.476C149.755 428.577 149.697 428.714 149.697 428.856V431.567H141.532V428.856C141.532 428.786 141.518 428.716 141.491 428.651C141.463 428.585 141.423 428.526 141.373 428.476C141.322 428.426 141.262 428.387 141.196 428.36C141.13 428.333 141.059 428.319 140.988 428.319H127.923C127.779 428.319 127.64 428.376 127.538 428.476C127.436 428.577 127.379 428.714 127.379 428.856V428.856V431.567H119.214V428.856C119.214 428.786 119.2 428.716 119.172 428.651C119.145 428.585 119.105 428.526 119.054 428.476C119.004 428.426 118.944 428.387 118.878 428.36C118.812 428.333 118.741 428.319 118.669 428.319H105.605C105.46 428.319 105.322 428.376 105.22 428.476C105.118 428.577 105.06 428.714 105.06 428.856V428.856V431.567H96.8951V428.856C96.8951 428.786 96.881 428.716 96.8536 428.651C96.8263 428.585 96.7862 428.526 96.7356 428.476C96.6851 428.426 96.6251 428.387 96.5591 428.36C96.493 428.333 96.4222 428.319 96.3507 428.319H83.2862C83.1419 428.319 83.0034 428.376 82.9013 428.476C82.7992 428.577 82.7419 428.714 82.7419 428.856V428.856V431.567H74.5766V428.856C74.5766 428.786 74.5625 428.716 74.5351 428.651C74.5078 428.585 74.4677 428.526 74.4171 428.476C74.3666 428.426 74.3066 428.387 74.2406 428.36C74.1745 428.333 74.1037 428.319 74.0322 428.319H60.9677C60.8233 428.319 60.6849 428.376 60.5828 428.476C60.4807 428.577 60.4233 428.714 60.4233 428.856V428.856V431.567H52.258V428.856C52.258 428.786 52.2439 428.716 52.2166 428.651C52.1892 428.585 52.1491 428.526 52.0986 428.476C52.048 428.426 51.988 428.387 51.922 428.36C51.8559 428.333 51.7852 428.319 51.7137 428.319H38.6492C38.5048 428.319 38.3663 428.376 38.2642 428.476C38.1622 428.577 38.1048 428.714 38.1048 428.856V428.856V431.567H13.0645C9.59958 431.567 6.27658 432.926 3.82651 435.345C1.37644 437.764 0 441.045 0 444.466V450.299C5.61492e-06 453.72 1.37645 457.001 3.82652 459.42C6.27659 461.839 9.59958 463.198 13.0645 463.198H447.459C450.924 463.198 454.247 461.839 456.697 459.42C459.147 457.001 460.524 453.72 460.524 450.299V444.466C460.524 441.045 459.147 437.764 456.697 435.345C454.247 432.926 450.924 431.567 447.459 431.567V431.567Z" fill="black"/>
<path d="M97.6292 54.7336C95.2511 57.8707 93.8114 61.6032 93.4734 65.5075C92.9891 70.2598 91.5798 77.861 87.4788 81.8564C81.2307 87.9436 79.148 92.509 79.148 92.509L81.2307 94.7917C81.2307 90.2263 84.0076 89.4654 84.0076 89.4654L83.3134 94.7917C102.058 112.292 143.712 96.3135 143.712 96.3135L142.324 82.6173C145.795 84.1391 147.183 94.7917 147.183 94.7917L152.737 93.2699C152.737 93.2699 143.018 76.5301 136.77 61.312C130.522 46.094 120.802 49.8985 120.802 49.8985C109.347 43.8536 101.781 49.4593 97.6292 54.7336Z" fill="#2F2E41"/>
<path d="M162.841 62.5725L169.573 19.1512C169.573 19.1512 162.393 1.87132 174.509 0.099026C186.625 -1.67327 178.548 20.9235 178.548 20.9235L174.509 62.5725H162.841Z" fill="#FFB9B9"/>
<path d="M157.456 266.83C159.7 270.374 160.149 288.54 160.149 288.54L175.855 278.793L171.368 262.842L157.456 266.83Z" fill="#FFB9B9"/>
<path d="M135.467 171.569C135.467 171.569 115.722 171.569 104.952 177.772C101.49 179.766 100.485 183.362 100.716 187.324C101.319 197.675 109.881 205.849 120.362 206.489L150.725 208.344C146.237 220.75 156.559 269.045 156.559 269.045L172.714 266.83C172.714 266.83 170.47 250.436 170.919 249.55C171.368 248.664 175.407 214.104 172.714 195.938C170.021 177.772 133.223 185.304 133.223 185.304L135.467 171.569Z" fill="#2F2E41"/>
<path d="M159.251 284.553C159.251 284.553 157.905 297.402 158.354 299.174C158.802 300.946 177.202 301.832 193.806 296.959C210.41 292.085 191.562 286.768 191.562 286.768C191.562 286.768 180.343 279.236 177.202 276.577C174.06 273.919 169.573 280.122 169.573 280.122C168.675 284.109 159.251 284.553 159.251 284.553Z" fill="#2F2E41"/>
<path d="M131.668 80.1911C133.098 71.4955 127.116 63.3024 118.309 61.8914C109.502 60.4803 101.204 66.3855 99.7749 75.0811C98.3457 83.7767 104.327 91.9698 113.134 93.3809C121.941 94.7919 130.239 88.8867 131.668 80.1911Z" fill="#FFB9B9"/>
<path d="M108.99 89.6C114.824 98.0184 107.644 102.892 107.644 102.892L104.503 125.932C104.503 125.932 138.16 129.034 143.993 124.603C149.827 120.172 137.262 105.551 132.775 104.221C128.287 102.892 127.389 84.7262 127.389 84.7262L108.99 89.6Z" fill="#FFB9B9"/>
<path d="M109.869 100.532L92.162 97.7969L90.1426 116.628C90.1426 116.628 91.0401 158.72 90.1426 166.252C89.2451 173.784 105.4 182.202 105.4 182.202C105.4 182.202 128.736 180.43 133.223 178.215C137.711 175.999 152.071 180.43 152.071 180.43C153.671 180.518 155.272 180.292 156.783 179.766C159.476 178.879 149.827 115.741 149.827 115.741L141.301 96.2461L130.98 100.234L127.838 114.855L109.869 100.532Z" fill="#3CC4B8"/>
<path d="M148.033 115.298L165.983 92.7012L178.548 62.1292L161.047 55.4835L153.866 80.7385L141.301 95.8032L140.852 98.4614L148.033 115.298Z" fill="#3CC4B8"/>
<path d="M91.4696 149.696L135.929 151.348C135.929 151.348 152.497 142.335 155.662 154.018C158.827 165.701 135.169 160.354 135.169 160.354L92.7999 161.14L91.4696 149.696Z" fill="#FFB9B9"/>
<path d="M95.3033 146.535L115.946 147.864L118.639 161.6C118.639 161.6 93.5082 161.156 83.6356 160.713C73.7629 160.27 83.6356 119.064 84.9818 106.658C86.3281 94.2523 93.0595 97.7969 93.0595 97.7969L97.0983 100.898L95.3033 146.535Z" fill="#3CC4B8"/>
<path opacity="0.15" d="M98.8938 142.104L116.844 149.194L97.0985 145.205L95.752 119.95L98.8938 142.104Z" fill="black"/>
<path d="M132.782 72.3271L103.142 73.0239L99.6136 58.3918H132.782V72.3271Z" fill="#2F2E41"/>
</g>
<defs>
<clipPath id="clip0">
<rect width="622" height="486" fill="white"/>
</clipPath>
</defs>
</svg>
