<svg width="622" height="486" viewBox="0 0 622 486" fill="none" xmlns="http://www.w3.org/2000/svg">
<path d="M600.007 442.964L600.436 412.929L618.257 375.772L600.503 408.218L600.695 394.713L612.978 367.83L600.746 391.139L601.092 366.85L614.245 345.448L601.147 363.031L601.363 318.493L600.004 377.453L600.116 375.021L586.743 351.693L599.901 379.69L598.655 406.816L598.618 406.096L583.202 381.548L598.571 408.64L598.415 412.032L598.387 412.083L598.4 412.362L595.239 481.185H599.462L599.969 445.637L615.301 418.611L600.007 442.964Z" fill="#E6E6E6"/>
<path d="M142.761 342.863C142.761 404.127 110.803 425.519 71.3806 425.519C31.9582 425.519 0 404.127 0 342.863C0 281.598 71.3806 203.66 71.3806 203.66C71.3806 203.66 142.761 281.598 142.761 342.863Z" fill="#E6E6E6"/>
<path d="M68.7804 416.147L69.5115 364.875L99.9354 301.443L69.626 356.831L69.9546 333.776L90.9227 287.884L70.0418 327.675L70.6327 286.211L93.0856 249.676L70.7255 279.691L71.0946 203.66L68.7741 304.311L68.9646 300.159L46.1364 260.337L68.5983 308.13L66.4717 354.439L66.4082 353.21L40.0909 311.303L66.3287 357.552L66.0622 363.343L66.0148 363.43L66.0364 363.905L60.6398 481.394H67.8504L68.7155 420.709L94.8884 374.573L68.7804 416.147Z" fill="#3F3D56"/>
<path d="M203.369 206.473V209.553H129.327C123.7 209.553 118.127 210.816 112.928 213.27C107.729 215.725 103.005 219.322 99.0253 223.857C95.046 228.392 91.8894 233.776 89.7358 239.701C87.5823 245.626 86.4738 251.977 86.4738 258.39V437.163C86.4738 443.576 87.5823 449.927 89.7358 455.852C91.8894 461.777 95.046 467.161 99.0253 471.696C103.005 476.231 107.729 479.828 112.928 482.282C118.127 484.737 123.7 486 129.327 486H535.526C541.153 486 546.726 484.737 551.925 482.282C557.124 479.828 561.849 476.231 565.828 471.696C569.807 467.161 572.964 461.777 575.117 455.852C577.271 449.927 578.379 443.576 578.379 437.163V258.39C578.379 251.977 577.271 245.626 575.117 239.701C572.964 233.776 569.807 228.392 565.828 223.857C561.849 219.322 557.124 215.725 551.925 213.27C546.726 210.816 541.153 209.553 535.526 209.553H256.073V206.473H203.369Z" fill="#3F3D56"/>
<path d="M129.626 219.948H535.227C543.715 219.948 551.855 223.791 557.857 230.631C563.859 237.47 567.231 246.747 567.231 256.421V436.05C567.231 445.724 563.859 455 557.857 461.84C551.855 468.68 543.715 472.523 535.227 472.523H129.626C121.138 472.523 112.998 468.68 106.996 461.84C100.994 455 97.6225 445.724 97.6223 436.05V414.259C99.9312 415.33 102.436 415.738 104.915 415.447C107.395 415.155 109.774 414.174 111.842 412.59C113.911 411.005 115.607 408.865 116.779 406.358C117.952 403.852 118.567 401.055 118.568 398.214V295.797C118.567 292.957 117.952 290.16 116.779 287.653C115.607 285.146 113.911 283.007 111.842 281.422C109.774 279.837 107.395 278.856 104.915 278.565C102.436 278.274 99.9312 278.682 97.6223 279.752V256.421C97.6225 246.747 100.994 237.47 106.996 230.631C112.998 223.791 121.138 219.948 129.626 219.948Z" fill="white"/>
<path d="M249.005 366.381C273.816 366.381 293.929 343.46 293.929 315.184C293.929 286.909 273.816 263.987 249.005 263.987C224.194 263.987 204.081 286.909 204.081 315.184C204.081 343.46 224.194 366.381 249.005 366.381Z" fill="#FF6584"/>
<path d="M389.882 472.955H169.498C169.222 472.959 168.946 472.934 168.674 472.881L272.906 267.126C273.542 265.844 274.465 264.778 275.581 264.037C276.697 263.295 277.966 262.904 279.258 262.904C280.55 262.904 281.819 263.295 282.934 264.037C284.05 264.778 284.974 265.844 285.61 267.126L355.562 405.203L358.914 411.81L389.882 472.955Z" fill="#3CC4B8"/>
<path opacity="0.2" d="M389.882 472.955H314.638L351.575 411.811L354.233 407.406L355.562 405.203L358.913 411.811L389.882 472.955Z" fill="black"/>
<path d="M512.59 472.955H321.976L358.914 411.81L361.572 407.406L409.704 327.722C412.86 322.5 420.451 322.175 424.161 326.737C424.41 327.049 424.642 327.378 424.854 327.722L512.59 472.955Z" fill="#3CC4B8"/>
<path d="M334.069 49.9777C334.069 77.5796 323.641 78.4372 306.654 78.4372C289.666 78.4372 272.552 77.5796 272.552 49.9777C272.552 22.3758 286.323 0 303.31 0C320.298 0 334.069 22.3758 334.069 49.9777Z" fill="#2F2E41"/>
<path d="M291.876 51.1021C291.876 51.1021 299.128 85.6629 296.491 89.4195C293.854 93.1762 318.906 101.441 318.906 101.441L329.454 68.3826L323.521 67.6312C323.521 67.6312 314.95 65.3773 317.587 46.5942C320.224 27.8112 291.876 51.1021 291.876 51.1021Z" fill="#A0616A"/>
<path d="M303.413 60.8693C315.246 60.8693 324.839 49.937 324.839 36.4513C324.839 22.9657 315.246 12.0334 303.413 12.0334C291.58 12.0334 281.987 22.9657 281.987 36.4513C281.987 49.937 291.58 60.8693 303.413 60.8693Z" fill="#A0616A"/>
<path d="M282.317 173.943L267.154 188.97C267.154 188.97 221.005 208.504 231.553 238.557C242.102 268.61 261.88 312.938 261.88 312.938L267.154 327.213H280.339L288.909 322.705L286.932 316.695C286.932 316.695 282.317 308.43 282.317 303.922C282.317 299.414 274.406 247.573 269.132 243.816C269.132 243.816 295.502 214.515 314.621 213.012C333.739 211.509 339.013 206.25 349.562 213.012C360.11 219.774 401.643 232.546 401.643 232.546C401.643 232.546 424.058 279.128 435.266 287.393C446.473 295.658 455.703 323.457 455.703 323.457L474.162 319.7L464.933 297.912C464.933 297.912 455.703 282.134 455.703 275.372C455.703 268.61 425.377 203.245 403.621 192.726C381.866 182.208 371.32 172.537 371.32 172.537L321.465 157.128L282.317 173.943Z" fill="#2F2E41"/>
<path d="M267.154 316.695C267.154 316.695 262.539 312.938 259.243 320.451C255.946 327.964 246.717 345.245 246.717 345.245C246.717 345.245 219.687 368.536 240.124 374.546C240.124 374.546 250.013 375.298 267.154 361.774C284.295 348.25 296.821 341.488 297.48 339.234C298.139 336.98 293.524 311.435 288.909 311.435C284.295 311.435 285.613 323.456 280.339 323.456C276.57 323.56 272.818 324.063 269.132 324.959L267.154 316.695Z" fill="#2F2E41"/>
<path d="M480.184 323.959C479.59 322.038 478.668 320.27 477.47 318.758C476.273 317.246 474.824 316.019 473.208 315.15C471.592 314.28 469.841 313.785 468.055 313.692C466.27 313.599 464.486 313.911 462.807 314.609C461.795 315.042 461.109 315.492 460.977 315.943C460.318 318.197 454.352 319.311 453.709 318.003C453.066 316.695 448.451 312.938 451.747 327.213C455.044 341.488 464.933 372.292 470.207 377.552C475.481 382.811 493.94 382.06 495.259 376.8C496.577 371.541 494.6 361.774 491.962 358.017C489.325 354.261 484.711 342.24 484.051 337.732C483.741 335.61 481.971 329.662 480.184 323.959Z" fill="#2F2E41"/>
<path d="M361.928 217.901C361.928 217.901 367.115 243.38 377.299 237.393C387.482 231.406 366.134 207.56 366.134 207.56L361.928 217.901Z" fill="#A0616A"/>
<path d="M305.232 203.626C305.232 203.626 310.419 229.105 320.602 223.118C330.785 217.131 309.437 193.285 309.437 193.285L305.232 203.626Z" fill="#A0616A"/>
<path d="M355.495 161.922C347.867 164.597 342.85 164.89 340.444 167.58C340.145 167.907 339.885 168.278 339.673 168.684C337.695 172.441 329.124 173.943 317.917 170.938C314.162 169.815 310.258 169.489 306.4 169.976C302.569 170.42 298.713 171.344 291.546 170.938C279.04 170.224 273.061 123.56 270.226 111.058C270.074 110.374 269.929 109.795 269.791 109.33C267.154 100.314 280.998 91.2978 282.976 89.0439C284.954 86.7899 290.887 77.774 296.346 76.8349C301.798 75.8957 310.006 89.0439 310.006 89.0439C310.006 89.0439 322.861 71.3878 321.543 66.8799C320.224 62.3719 334.069 65.3772 336.706 64.6259C338.196 64.1976 344.419 66.0534 349.555 67.7514C351.699 68.4571 353.602 69.8909 355.012 71.8615C356.422 73.8322 357.271 76.2459 357.446 78.7808C357.532 80.0055 357.624 81.3353 357.717 82.7628C359.352 107.301 362.041 159.631 355.495 161.922Z" fill="#E6E6E6"/>
<path opacity="0.1" d="M306.4 169.976C302.569 170.42 298.713 171.344 291.546 170.938C279.04 170.224 273.061 123.56 270.226 111.058C270.701 107.166 271.109 104.822 271.109 104.822L274.735 110.457C274.735 110.457 292.206 143.139 296.821 152.155C298.706 155.836 302.576 162.786 306.4 169.976Z" fill="black"/>
<path d="M275.065 101.816L269.132 104.822C269.132 104.822 261.22 149.901 275.065 172.441C288.909 194.98 294.183 198.737 296.821 202.494C297.609 203.586 298.627 204.434 299.779 204.959C300.931 205.485 302.181 205.67 303.413 205.499C303.413 205.499 300.776 213.012 305.391 213.012C310.006 213.012 327.147 205.499 322.532 203.245C317.917 200.991 313.302 197.234 314.621 193.478C315.939 189.721 299.458 161.171 294.843 152.155C290.228 143.139 275.065 101.816 275.065 101.816Z" fill="#E6E6E6"/>
<path opacity="0.1" d="M355.495 161.922C347.867 164.597 342.85 164.89 340.444 167.58C339.838 160.157 339.864 153.162 340.991 147.647C345.043 127.856 348.101 85.0015 347.913 74.3931C347.891 73.1343 348.127 75.1444 349.232 75.1444V75.8958C354.111 75.8958 355.482 73.9198 356.853 79.2542C357.13 80.3211 357.42 81.4931 357.717 82.7629C359.352 107.301 362.042 159.631 355.495 161.922Z" fill="black"/>
<path d="M346.925 70.2608H348.945C351.319 70.2596 353.63 71.1353 355.531 72.7566C357.432 74.378 358.821 76.6577 359.489 79.2542C362.008 89.382 363.977 99.677 365.384 110.081C369.339 137.88 373.954 207.001 373.295 208.504C372.636 210.007 381.206 217.52 377.251 219.023C373.295 220.525 366.043 223.531 362.747 224.282C359.451 225.033 352.858 217.52 352.858 217.52C352.858 217.52 339.013 170.187 343.628 147.647C348.243 125.107 346.925 70.2608 346.925 70.2608Z" fill="#E6E6E6"/>
<path d="M321.887 19.0887C321.887 26.5642 312.888 32.6243 301.788 32.6243C290.687 32.6243 280.47 36.6292 280.47 29.1537C280.47 21.6782 290.687 5.5531 301.788 5.5531C312.888 5.5531 321.887 11.6132 321.887 19.0887Z" fill="#2F2E41"/>
<path d="M272.734 54.6623C272.734 54.6623 271.914 79.8255 293.855 78.4372C315.796 77.049 290.89 56.9282 290.89 56.9282L272.734 54.6623Z" fill="#2F2E41"/>
<rect x="0.5" y="0.5" width="621" height="485" rx="11.5" stroke="black"/>
</svg>
