<svg width="622" height="486" viewBox="0 0 622 486" fill="none" xmlns="http://www.w3.org/2000/svg">
<path d="M622 0H0V486H622V0Z" fill="#E5E5E5"/>
<path d="M621.69 484.346H0V485.624H621.69V484.346Z" fill="#3F3D56"/>
<path d="M314.718 131.684H312.067V61.7276C312.067 56.4106 310.98 51.1456 308.868 46.2333C306.755 41.321 303.659 36.8575 299.756 33.0978C295.853 29.3381 291.219 26.3557 286.119 24.321C281.019 22.2862 275.553 21.239 270.033 21.239H116.165C110.645 21.2389 105.179 22.2862 100.079 24.3209C94.9795 26.3557 90.3457 29.338 86.4425 33.0977C82.5393 36.8574 79.4431 41.3209 77.3307 46.2332C75.2182 51.1455 74.131 56.4104 74.131 61.7275V445.511C74.131 456.25 78.5595 466.548 86.4424 474.141C94.3253 481.734 105.017 486 116.165 486H270.033C281.181 486 291.873 481.734 299.756 474.141C307.639 466.548 312.067 456.25 312.067 445.512V181.479H314.718V131.684Z" fill="black"/>
<path d="M303.123 62.01V445.229C303.123 453.249 299.815 460.94 293.928 466.61C288.041 472.281 280.056 475.467 271.731 475.467H117.118C112.996 475.467 108.914 474.684 105.106 473.165C101.298 471.645 97.8375 469.418 94.9231 466.61C92.0087 463.802 89.697 460.468 88.12 456.8C86.5431 453.131 85.7318 449.2 85.7324 445.229V62.01C85.7318 58.0395 86.5431 54.1077 88.12 50.4392C89.6969 46.7707 92.0087 43.4373 94.9231 40.6294C97.8375 37.8216 101.298 35.5941 105.106 34.0744C108.914 32.5547 112.996 31.7724 117.118 31.7722H135.88C134.955 33.9535 134.601 36.3205 134.85 38.6646C135.099 41.0087 135.943 43.2577 137.308 45.2133C138.673 47.1689 140.516 48.771 142.675 49.8782C144.835 50.9855 147.244 51.5639 149.69 51.5625H237.839C240.285 51.5637 242.694 50.985 244.853 49.8776C247.012 48.7701 248.855 47.1678 250.219 45.2121C251.583 43.2564 252.426 41.0074 252.674 38.6635C252.923 36.3197 252.568 33.9529 251.643 31.7722H271.731C280.056 31.7723 288.041 34.9581 293.928 40.6288C299.815 46.2994 303.123 53.9905 303.123 62.01Z" fill="white"/>
<path d="M155.617 134.709C178.318 134.709 196.722 116.982 196.722 95.1152C196.722 73.2484 178.318 55.5218 155.617 55.5218C132.915 55.5218 114.512 73.2484 114.512 95.1152C114.512 116.982 132.915 134.709 155.617 134.709Z" fill="#FF6584"/>
<path d="M259.598 284.837C262.614 255.377 252.906 230.34 237.917 228.916C222.927 227.492 208.33 250.221 205.315 279.682C202.299 309.143 212.006 334.18 226.996 335.604C241.986 337.027 256.582 314.298 259.598 284.837Z" fill="black"/>
<path d="M226.025 369.813C221.585 305.958 238.754 244.383 238.927 243.769L241.007 244.315C240.834 244.926 223.761 306.177 228.175 369.675L226.025 369.813Z" fill="#3CC4B8"/>
<path d="M257.526 273.059L231.688 283.373L232.514 285.291L258.351 274.977L257.526 273.059Z" fill="#3CC4B8"/>
<path d="M207.444 274.7L206.245 276.426L229.49 291.409L230.689 289.683L207.444 274.7Z" fill="#3CC4B8"/>
<path d="M228.75 198.84C234.648 141.218 215.662 92.2484 186.344 89.464C157.025 86.6796 128.476 131.134 122.578 188.757C116.68 246.379 135.666 295.348 164.984 298.132C194.303 300.917 222.852 256.462 228.75 198.84Z" fill="#E6E6E6"/>
<path d="M164.113 364.976C155.44 240.247 188.974 119.978 189.314 118.777L191.393 119.323C191.054 120.52 157.616 240.467 166.263 364.838L164.113 364.976Z" fill="#3F3D56"/>
<path d="M225.093 176.718L174.556 196.892L175.381 198.81L225.918 178.636L225.093 176.718Z" fill="#3F3D56"/>
<path d="M126.168 179.833L124.969 181.559L170.435 210.863L171.633 209.138L126.168 179.833Z" fill="#3F3D56"/>
<path d="M380.465 149.842C388.536 70.9905 362.556 3.97996 322.436 0.169679C282.316 -3.6406 243.249 57.1923 235.178 136.044C227.106 214.895 253.087 281.906 293.207 285.716C333.327 289.526 372.394 228.693 380.465 149.842Z" fill="#3CC4B8"/>
<path d="M292.411 377.161C280.548 206.542 326.419 42.0251 326.884 40.3834L328.963 40.9293C328.499 42.5679 282.723 206.762 294.561 377.023L292.411 377.161Z" fill="#3F3D56"/>
<path d="M375.613 119.923L306.457 147.529L307.282 149.447L376.438 121.841L375.613 119.923Z" fill="#3F3D56"/>
<path d="M239.869 124.151L238.671 125.876L300.886 165.976L302.085 164.251L239.869 124.151Z" fill="#3F3D56"/>
<path d="M85.7324 375.014L84.4065 446.858C84.4065 463.857 99.781 477.638 117.118 477.638H271.731C289.068 477.638 304.449 463.857 304.449 446.858L303.123 375.644C225.175 346.541 153.098 348.366 85.7324 375.014Z" fill="#3CC4B8"/>
<path d="M415.574 125.215L423.804 118.874C417.411 118.195 414.784 121.554 413.708 124.212C408.714 122.214 403.276 124.832 403.276 124.832L419.743 130.591C418.912 128.453 417.466 126.589 415.574 125.215Z" fill="#3F3D56"/>
<path d="M214.425 69.2414L222.654 62.9011C216.261 62.2216 213.634 65.5803 212.559 68.2387C207.564 66.2409 202.127 68.8591 202.127 68.8591L218.593 74.6172C217.763 72.48 216.316 70.6152 214.425 69.2414Z" fill="#3F3D56"/>
<path d="M542.522 44.2686L550.752 37.9283C544.358 37.2489 541.731 40.6075 540.656 43.2659C535.661 41.2681 530.224 43.8863 530.224 43.8863L546.69 49.6444C545.86 47.5072 544.414 45.6424 542.522 44.2686Z" fill="#3F3D56"/>
<path d="M529.511 335.883L529.371 346.684C529.358 347.727 529.104 348.753 528.629 349.69C528.154 350.627 527.469 351.45 526.624 352.101C525.779 352.753 524.794 353.215 523.741 353.455C522.687 353.696 521.592 353.708 520.533 353.491C519.448 353.269 518.43 352.813 517.555 352.156C516.68 351.499 515.972 350.659 515.483 349.7C514.995 348.741 514.739 347.687 514.735 346.619C514.732 345.55 514.98 344.495 515.462 343.533L519.21 336.051L526.978 281.754L523.996 245.472L538.58 244.798L541.682 286.3L529.511 335.883Z" fill="#A0616A"/>
<path d="M458.055 393.266L444.033 465.992L451.044 464.953L476.93 391.708L458.055 393.266Z" fill="#A0616A"/>
<path d="M525.197 394.045L534.095 468.589L541.645 467.55L543.533 393.526L525.197 394.045Z" fill="#A0616A"/>
<path d="M605.012 372.228C584.911 387.784 561.373 410.631 537.938 402.119C513.482 393.237 485.259 392.675 453.471 396.643C461.063 350.772 470.438 307.37 482.593 267.815L523.04 274.049C523.665 274.715 522.155 278.317 522.77 278.984C534.14 291.317 545.736 300.876 552.743 313.579C563.068 332.484 577.041 349.319 593.914 363.182L605.012 372.228Z" fill="#3CC4B8"/>
<path opacity="0.5" d="M622 380.28C601.898 396.275 559.755 422.979 536.32 414.227C511.865 405.094 482.832 405.81 451.044 409.889C452.553 400.518 454.162 391.207 455.871 381.955C462.761 344.682 588.346 357.774 605.282 371.968L622 380.28Z" fill="#E6E6E6"/>
<path d="M541.049 247.124C533.487 244.994 525.778 246.052 517.966 249.323L520.796 228.84C520.509 226.584 521.164 224.31 522.618 222.52C524.072 220.729 526.204 219.567 528.547 219.291C530.889 219.015 533.25 219.646 535.109 221.046C536.968 222.447 538.174 224.501 538.46 226.757L541.049 247.124Z" fill="#2F2E41"/>
<path d="M506.591 204.181C514.931 204.181 521.692 197.669 521.692 189.636C521.692 181.603 514.931 175.091 506.591 175.091C498.252 175.091 491.491 181.603 491.491 189.636C491.491 197.669 498.252 204.181 506.591 204.181Z" fill="#A0616A"/>
<path d="M534.635 230.154L501.468 222.622C506.392 215.804 505.384 207.813 501.468 199.246L517.647 196.129C519.438 202.042 521.61 207.452 524.658 211.713L534.635 230.154Z" fill="#A0616A"/>
<path d="M523.04 276.127L482.054 270.413L483.417 263.019C482.77 243.757 486.066 227.99 492.3 214.83L528.433 216.908C533.068 220.479 536.344 225.43 537.748 230.985C539.153 236.54 538.608 242.387 536.197 247.612L523.579 271.452L523.04 276.127Z" fill="#2F2E41"/>
<path d="M451.996 484.748C450.104 485.58 448.52 478.843 446.925 480.353C442.462 484.578 435.629 485.497 429.672 483.653L431.757 483.631C431.397 483.519 431.065 483.339 430.78 483.1C430.495 482.862 430.264 482.57 430.099 482.243C429.935 481.915 429.841 481.559 429.824 481.196C429.807 480.833 429.866 480.47 429.999 480.129C430.157 479.722 430.416 479.357 430.753 479.068C431.09 478.778 431.496 478.571 431.934 478.466L436.68 477.323L444.132 464.7L452.253 463.71L452.458 464.033C454.028 466.47 455.04 469.202 455.427 472.046C455.814 474.89 455.567 477.781 454.702 480.526C454.026 482.61 453.107 484.26 451.996 484.748Z" fill="#2F2E41"/>
<path d="M541.518 484.748C539.627 485.58 538.043 478.843 536.447 480.353C531.985 484.578 525.151 485.497 519.195 483.653L521.279 483.631C520.92 483.519 520.588 483.339 520.303 483.1C520.018 482.862 519.786 482.57 519.622 482.243C519.457 481.915 519.364 481.559 519.346 481.196C519.329 480.833 519.389 480.47 519.521 480.129C519.68 479.722 519.939 479.357 520.276 479.068C520.613 478.778 521.018 478.571 521.457 478.466L526.202 477.323L533.654 464.7L541.775 463.71L541.98 464.033C543.55 466.47 544.562 469.202 544.949 472.046C545.336 474.89 545.089 477.781 544.224 480.526C543.549 482.61 542.629 484.26 541.518 484.748Z" fill="#2F2E41"/>
<path d="M525.387 250.933H525C517.707 244.846 511.37 238.023 516.488 229.481C512.148 218.87 507.309 207.85 507.601 201.033C507.908 195.992 506.224 191.027 502.886 187.133C498.274 181.944 497.248 179.626 488.824 181.589C488.794 179.505 489.204 177.437 490.029 175.51C490.855 173.584 492.078 171.839 493.625 170.382C495.172 168.925 497.01 167.786 499.028 167.035C501.046 166.283 503.202 165.935 505.364 166.01L510.627 166.195C514.653 166.336 527.519 167.921 530.282 170.48C531.682 171.821 532.742 173.456 533.378 175.257C534.015 177.057 534.211 178.975 533.951 180.861C533.434 185.092 534.82 188.828 538.523 191.961C545.611 199.021 548.535 206.347 544.516 214.116C541.482 222.34 541.627 229.11 549.452 232.364C551.994 241.759 535.465 250.933 525.387 250.933Z" fill="#2F2E41"/>
<path d="M447.42 296.125C449.512 294.261 448.008 289.418 444.06 285.306C440.113 281.195 435.217 279.373 433.125 281.237C431.033 283.1 432.538 287.944 436.485 292.055C440.433 296.166 445.329 297.988 447.42 296.125Z" fill="#3F3D56"/>
<path d="M461.234 264.147C469.593 264.147 476.369 257.62 476.369 249.569C476.369 241.517 469.593 234.99 461.234 234.99C452.876 234.99 446.1 241.517 446.1 249.569C446.1 257.62 452.876 264.147 461.234 264.147Z" fill="#3CC4B8"/>
<path d="M486.65 342.465C479.863 339.503 473.541 335.639 467.868 330.986C456.414 321.448 448.097 307.759 447.478 292.965C446.885 278.767 453.131 265.419 459.738 253.081C460.569 251.529 461.408 249.981 462.257 248.438C462.579 247.848 463.58 248.244 463.255 248.837C456.401 261.367 449.21 274.607 448.559 289.055C447.874 304.284 455.598 318.8 467.093 328.932C473.023 334.073 479.738 338.304 487.005 341.477" fill="#3F3D56"/>
<path d="M455.458 249.171L454.756 249.327L457.035 258.83L457.737 258.673L455.458 249.171Z" fill="#3F3D56"/>
<path d="M465.859 326.749C468.686 326.408 470.392 321.627 469.67 316.071C468.948 310.514 466.071 306.286 463.244 306.627C460.416 306.968 458.71 311.749 459.432 317.305C460.154 322.862 463.031 327.09 465.859 326.749Z" fill="#3F3D56"/>
<path d="M482.593 325.476L481.091 336.18C480.946 337.214 480.565 338.203 479.975 339.077C479.386 339.951 478.602 340.689 477.681 341.236C476.759 341.783 475.724 342.127 474.648 342.242C473.572 342.358 472.483 342.242 471.46 341.903C470.411 341.555 469.458 340.983 468.672 340.229C467.886 339.474 467.289 338.558 466.925 337.548C466.562 336.539 466.441 335.463 466.572 334.402C466.703 333.342 467.083 332.323 467.683 331.424L472.346 324.437L486.907 271.452L488.525 235.089L503.086 236.128L500.929 277.685L482.593 325.476Z" fill="#A0616A"/>
<path d="M504.973 242.881C497.736 239.882 489.951 240.029 481.784 242.362L487.177 222.362C487.177 220.089 488.114 217.909 489.783 216.301C491.452 214.694 493.715 213.791 496.075 213.791C498.435 213.791 500.698 214.694 502.367 216.301C504.036 217.909 504.973 220.089 504.973 222.362V242.881Z" fill="#2F2E41"/>
<rect x="0.5" y="0.5" width="621" height="485" rx="11.5" stroke="black"/>
</svg>
