<svg width="622" height="486" viewBox="0 0 622 486" fill="none" xmlns="http://www.w3.org/2000/svg">
<rect width="622" height="486" fill="white"/>
<path d="M621.184 486H310.921C310.705 486 310.498 485.908 310.345 485.744C310.193 485.58 310.107 485.357 310.107 485.125C310.107 484.893 310.193 484.671 310.345 484.507C310.498 484.342 310.705 484.25 310.921 484.25H621.184C621.4 484.25 621.607 484.342 621.759 484.507C621.912 484.671 621.998 484.893 621.998 485.125C621.998 485.357 621.912 485.58 621.759 485.744C621.607 485.908 621.4 486 621.184 486Z" fill="#CCCCCC"/>
<path d="M579.557 120.13H578.869C578.005 120.129 577.177 119.759 576.567 119.103C575.956 118.447 575.613 117.558 575.612 116.63V88.8404C575.613 87.9126 575.956 87.0231 576.567 86.367C577.177 85.7109 578.005 85.3419 578.869 85.3408H579.557C580.42 85.3419 581.248 85.7109 581.859 86.367C582.47 87.0231 582.813 87.9126 582.814 88.8404V116.63C582.813 117.558 582.47 118.447 581.859 119.103C581.248 119.759 580.42 120.129 579.557 120.13V120.13Z" fill="#E6E6E6"/>
<path d="M353.236 86.2157H352.548C351.685 86.2147 350.857 85.8456 350.246 85.1896C349.635 84.5335 349.292 83.644 349.291 82.7162V66.6303C349.292 65.7025 349.635 64.813 350.246 64.1569C350.857 63.5008 351.685 63.1318 352.548 63.1307H353.236C354.1 63.1318 354.928 63.5008 355.538 64.1569C356.149 64.813 356.492 65.7025 356.493 66.6303V82.7162C356.492 83.644 356.149 84.5335 355.538 85.1896C354.928 85.8456 354.1 86.2147 353.236 86.2157Z" fill="#E6E6E6"/>
<path d="M353.236 125.383H352.548C351.685 125.382 350.857 125.013 350.246 124.357C349.635 123.701 349.292 122.811 349.291 121.884V105.797C349.292 104.869 349.635 103.98 350.246 103.324C350.857 102.668 351.685 102.299 352.548 102.298H353.236C354.1 102.299 354.928 102.668 355.538 103.324C356.149 103.98 356.492 104.869 356.493 105.797V121.884C356.492 122.811 356.149 123.701 355.538 124.357C354.928 125.013 354.1 125.382 353.236 125.383Z" fill="#E6E6E6"/>
<path d="M548.132 485.106H383.973C376.471 485.097 369.28 481.891 363.975 476.193C358.671 470.494 355.688 462.767 355.679 454.708V31.2725C355.688 23.2134 358.671 15.4869 363.975 9.78821C369.28 4.08952 376.471 0.883994 383.973 0.874878H548.132C555.633 0.88396 562.825 4.08946 568.129 9.78815C573.434 15.4868 576.417 23.2133 576.426 31.2725V454.708C576.417 462.767 573.434 470.494 568.129 476.193C562.825 481.891 555.633 485.097 548.132 485.106V485.106Z" fill="black"/>
<path d="M548.132 485.981H383.973C376.256 485.971 368.857 482.674 363.4 476.811C357.943 470.948 354.873 462.999 354.865 454.708V125.884C354.352 126.13 353.797 126.258 353.236 126.258H352.548C351.469 126.257 350.434 125.795 349.67 124.975C348.907 124.155 348.478 123.043 348.476 121.884V105.797C348.478 104.638 348.907 103.526 349.67 102.706C350.434 101.886 351.469 101.424 352.548 101.423H353.236C353.797 101.423 354.352 101.551 354.865 101.797V86.7168C354.352 86.9628 353.797 87.0902 353.236 87.0906H352.548C351.469 87.0893 350.434 86.628 349.67 85.8079C348.907 84.9878 348.478 83.8759 348.476 82.7162V66.6303C348.478 65.4705 348.907 64.3586 349.67 63.5386C350.434 62.7185 351.469 62.2572 352.548 62.2558H353.236C353.797 62.2563 354.352 62.3836 354.865 62.6296V31.2725C354.873 22.9814 357.943 15.0326 363.4 9.16988C368.857 3.30718 376.256 0.00939439 383.973 0H548.132C555.849 0.00934102 563.248 3.3071 568.705 9.1698C574.162 15.0325 577.232 22.9814 577.241 31.2725V84.8397C577.753 84.5937 578.308 84.4664 578.869 84.4659H579.557C580.636 84.4673 581.671 84.9286 582.434 85.7486C583.198 86.5687 583.627 87.6806 583.628 88.8404V116.63C583.627 117.79 583.198 118.902 582.434 119.722C581.671 120.542 580.636 121.003 579.557 121.004H578.869C578.308 121.004 577.753 120.877 577.241 120.631V454.708C577.232 462.999 574.162 470.948 568.705 476.811C563.248 482.674 555.849 485.971 548.132 485.981V485.981ZM356.493 121.843V454.708C356.502 462.535 359.399 470.04 364.551 475.574C369.703 481.109 376.687 484.222 383.973 484.231H548.132C555.417 484.222 562.402 481.109 567.554 475.574C572.706 470.04 575.604 462.536 575.612 454.708V116.588L577.04 118.345C577.266 118.628 577.547 118.856 577.863 119.013C578.178 119.169 578.521 119.252 578.869 119.255H579.557C580.204 119.254 580.825 118.977 581.283 118.485C581.741 117.993 581.999 117.326 582 116.63V88.8404C581.999 88.1445 581.741 87.4774 581.283 86.9853C580.825 86.4932 580.204 86.2165 579.557 86.2157H578.869C578.521 86.2183 578.178 86.3009 577.863 86.4578C577.547 86.6147 577.266 86.8425 577.04 87.1256L575.612 88.8822V31.2725C575.604 23.4453 572.706 15.9411 567.554 10.4065C562.402 4.87178 555.417 1.75855 548.132 1.74977H383.973C376.687 1.7586 369.703 4.87186 364.551 10.4065C359.399 15.9412 356.502 23.4453 356.493 31.2725V66.6709L355.066 64.916C354.839 64.6328 354.558 64.4051 354.243 64.2481C353.927 64.0911 353.584 64.0084 353.236 64.0056H352.548C351.9 64.0064 351.279 64.2832 350.821 64.7752C350.363 65.2673 350.106 65.9344 350.105 66.6303V82.7162C350.106 83.412 350.363 84.0792 350.821 84.5712C351.279 85.0633 351.9 85.3401 352.548 85.3408H353.236C353.584 85.3381 353.927 85.2554 354.243 85.0984C354.558 84.9414 354.839 84.7136 355.066 84.4305L356.493 82.6756V105.838L355.066 104.083C354.839 103.8 354.558 103.572 354.243 103.415C353.927 103.258 353.584 103.175 353.236 103.173H352.548C351.9 103.173 351.279 103.45 350.821 103.942C350.363 104.434 350.106 105.101 350.105 105.797V121.884C350.106 122.579 350.363 123.247 350.821 123.739C351.279 124.231 351.9 124.508 352.548 124.508H353.236C353.584 124.506 353.927 124.423 354.243 124.266C354.558 124.109 354.839 123.881 355.066 123.598L356.493 121.843Z" fill="#3CC4B8"/>
<path d="M440.509 120.13H395.619C388.739 120.121 382.143 117.181 377.278 111.954C372.413 106.728 369.677 99.6414 369.669 92.2498V36.3446C369.677 28.953 372.413 21.8666 377.278 16.64C382.143 11.4134 388.739 8.4735 395.619 8.46521H440.509C447.389 8.4735 453.985 11.4134 458.85 16.64C463.715 21.8666 466.452 28.953 466.46 36.3446V92.2498C466.452 99.6414 463.715 106.728 458.85 111.954C453.985 117.181 447.39 120.121 440.509 120.13V120.13Z" fill="#3CC4B8"/>
<path d="M440.509 121.004H395.619C388.523 120.996 381.72 117.963 376.703 112.573C371.685 107.182 368.863 99.8733 368.855 92.2498V36.3446C368.863 28.7211 371.685 21.4123 376.703 16.0217C381.72 10.6311 388.523 7.59892 395.619 7.59033H440.509C447.605 7.59892 454.408 10.6311 459.426 16.0217C464.443 21.4123 467.266 28.7211 467.274 36.3446V92.2498C467.266 99.8733 464.443 107.182 459.426 112.573C454.408 117.963 447.605 120.996 440.509 121.004V121.004ZM395.619 9.34009C388.955 9.34819 382.566 12.1959 377.854 17.2584C373.142 22.321 370.491 29.185 370.483 36.3446V92.2498C370.491 99.4094 373.142 106.274 377.854 111.336C382.566 116.399 388.955 119.247 395.619 119.255H440.509C447.174 119.247 453.563 116.399 458.275 111.336C462.987 106.274 465.638 99.4094 465.645 92.2498V36.3446C465.638 29.185 462.987 22.321 458.275 17.2585C453.562 12.1959 447.174 9.3482 440.509 9.34011L395.619 9.34009Z" fill="#CCCCCC"/>
<path d="M466.052 262.609C478.17 262.609 487.993 252.056 487.993 239.037C487.993 226.019 478.17 215.466 466.052 215.466C453.935 215.466 444.112 226.019 444.112 239.037C444.112 252.056 453.935 262.609 466.052 262.609Z" fill="#3CC4B8"/>
<path d="M397.075 52.5322C404.635 52.5322 410.764 45.9478 410.764 37.8256C410.764 29.7034 404.635 23.119 397.075 23.119C389.515 23.119 383.386 29.7034 383.386 37.8256C383.386 45.9478 389.515 52.5322 397.075 52.5322Z" fill="#2F2E41"/>
<path d="M397.075 105.476C404.635 105.476 410.764 98.8914 410.764 90.7692C410.764 82.647 404.635 76.0626 397.075 76.0626C389.515 76.0626 383.386 82.647 383.386 90.7692C383.386 98.8914 389.515 105.476 397.075 105.476Z" fill="#2F2E41"/>
<path d="M439.054 78.7408C446.614 78.7408 452.742 72.1564 452.742 64.0342C452.742 55.912 446.614 49.3276 439.054 49.3276C431.494 49.3276 425.365 55.912 425.365 64.0342C425.365 72.1564 431.494 78.7408 439.054 78.7408Z" fill="#2F2E41"/>
<path d="M397.075 42.9728C399.721 42.9728 401.866 40.6683 401.866 37.8255C401.866 34.9828 399.721 32.6782 397.075 32.6782C394.429 32.6782 392.284 34.9828 392.284 37.8255C392.284 40.6683 394.429 42.9728 397.075 42.9728Z" fill="#B3B3B3"/>
<path d="M397.075 43.8479C395.966 43.8479 394.882 43.4947 393.961 42.833C393.039 42.1712 392.32 41.2307 391.896 40.1303C391.472 39.0298 391.361 37.819 391.577 36.6507C391.793 35.4825 392.327 34.4095 393.111 33.5672C393.895 32.725 394.894 32.1514 395.981 31.919C397.068 31.6866 398.196 31.8058 399.22 32.2616C400.244 32.7174 401.12 33.4892 401.736 34.4796C402.352 35.4699 402.68 36.6342 402.68 37.8253C402.679 39.422 402.088 40.9529 401.037 42.0819C399.986 43.211 398.561 43.8461 397.075 43.8479V43.8479ZM397.075 33.553C396.288 33.553 395.519 33.8036 394.865 34.2731C394.211 34.7426 393.702 35.4099 393.401 36.1906C393.1 36.9713 393.021 37.8304 393.174 38.6592C393.328 39.488 393.707 40.2493 394.263 40.8468C394.819 41.4443 395.528 41.8512 396.299 42.016C397.071 42.1809 397.87 42.0962 398.597 41.7728C399.324 41.4494 399.945 40.9018 400.382 40.1991C400.818 39.4965 401.052 38.6704 401.052 37.8253C401.051 36.6926 400.631 35.6066 399.886 34.8057C399.14 34.0047 398.129 33.5542 397.075 33.553V33.553Z" fill="#E6E6E6"/>
<path d="M439.054 69.1816C441.7 69.1816 443.845 66.877 443.845 64.0343C443.845 61.1915 441.7 58.887 439.054 58.887C436.408 58.887 434.263 61.1915 434.263 64.0343C434.263 66.877 436.408 69.1816 439.054 69.1816Z" fill="#B3B3B3"/>
<path d="M439.054 70.0566C437.945 70.0566 436.861 69.7034 435.939 69.0417C435.018 68.38 434.299 67.4394 433.875 66.339C433.451 65.2386 433.34 64.0277 433.556 62.8595C433.772 61.6913 434.306 60.6182 435.09 59.7759C435.874 58.9337 436.873 58.3601 437.96 58.1277C439.047 57.8953 440.174 58.0145 441.199 58.4703C442.223 58.9261 443.098 59.698 443.714 60.6883C444.33 61.6786 444.659 62.843 444.659 64.0341C444.658 65.6308 444.066 67.1616 443.016 68.2907C441.965 69.4197 440.54 70.0548 439.054 70.0566V70.0566ZM439.054 59.7617C438.267 59.7617 437.498 60.0123 436.844 60.4818C436.19 60.9513 435.68 61.6186 435.379 62.3993C435.078 63.18 435 64.0391 435.153 64.8679C435.307 65.6967 435.685 66.458 436.242 67.0555C436.798 67.653 437.506 68.06 438.278 68.2248C439.049 68.3896 439.849 68.305 440.576 67.9816C441.302 67.6582 441.923 67.1105 442.36 66.4078C442.797 65.7052 443.031 64.8791 443.03 64.0341C443.029 62.9013 442.61 61.8153 441.864 61.0144C441.119 60.2134 440.108 59.7629 439.054 59.7617V59.7617Z" fill="#E6E6E6"/>
<path d="M397.075 95.9165C399.721 95.9165 401.866 93.612 401.866 90.7692C401.866 87.9264 399.721 85.6219 397.075 85.6219C394.429 85.6219 392.284 87.9264 392.284 90.7692C392.284 93.612 394.429 95.9165 397.075 95.9165Z" fill="#B3B3B3"/>
<path d="M397.075 96.7915C395.966 96.7915 394.882 96.4384 393.961 95.7766C393.039 95.1149 392.32 94.1743 391.896 93.0739C391.472 91.9735 391.361 90.7626 391.577 89.5944C391.793 88.4262 392.327 87.3531 393.111 86.5109C393.895 85.6686 394.894 85.095 395.981 84.8626C397.068 84.6302 398.196 84.7495 399.22 85.2052C400.244 85.661 401.12 86.4329 401.736 87.4232C402.351 88.4136 402.68 89.5779 402.68 90.769C402.679 92.3657 402.088 93.8965 401.037 95.0256C399.986 96.1547 398.561 96.7898 397.075 96.7915ZM397.075 86.4967C396.288 86.4967 395.519 86.7473 394.865 87.2168C394.211 87.6862 393.702 88.3535 393.401 89.1343C393.1 89.915 393.021 90.774 393.174 91.6028C393.328 92.4316 393.707 93.1929 394.263 93.7905C394.819 94.388 395.528 94.7949 396.299 94.9597C397.071 95.1246 397.87 95.0399 398.597 94.7165C399.323 94.3931 399.945 93.8454 400.382 93.1428C400.818 92.4401 401.052 91.614 401.052 90.769C401.05 89.6363 400.631 88.5503 399.886 87.7493C399.14 86.9484 398.129 86.4979 397.075 86.4967V86.4967Z" fill="#E6E6E6"/>
<path d="M254.454 158.407L195.535 256.94C195.34 257.266 195.088 257.547 194.792 257.768C194.496 257.989 194.163 258.145 193.811 258.228C193.459 258.31 193.095 258.317 192.74 258.249C192.386 258.18 192.047 258.037 191.744 257.828L191.742 257.827L36.053 150.371C35.9416 150.296 35.8364 150.21 35.7386 150.115C35.2402 149.651 34.9141 149.01 34.8202 148.308C34.7263 147.607 34.8709 146.893 35.2273 146.297L94.1466 47.764C94.3412 47.4382 94.5936 47.1569 94.8895 46.936C95.1853 46.715 95.5187 46.5589 95.8708 46.4764C96.2228 46.394 96.5865 46.3868 96.941 46.4553C97.2956 46.5239 97.6342 46.6668 97.9374 46.8759L97.9389 46.8769L253.628 154.333C253.931 154.542 254.193 154.813 254.399 155.131C254.605 155.449 254.75 155.807 254.827 156.185C254.904 156.564 254.91 156.954 254.846 157.335C254.783 157.716 254.65 158.08 254.455 158.406L254.454 158.407Z" fill="black"/>
<path d="M112.857 135.06C126.154 135.06 136.934 123.479 136.934 109.192C136.934 94.9061 126.154 83.3248 112.857 83.3248C99.5591 83.3248 88.7793 94.9061 88.7793 109.192C88.7793 123.479 99.5591 135.06 112.857 135.06Z" fill="#3CC4B8"/>
<path d="M136.277 220.103L36.9014 151.515C36.7759 151.431 36.6579 151.334 36.5489 151.227L135.85 96.2017C136.462 95.8549 137.15 95.6891 137.841 95.7211C138.533 95.7531 139.205 95.9819 139.787 96.3839C140.37 96.786 140.842 97.347 141.157 98.0096C141.472 98.6722 141.617 99.4127 141.578 100.155L138.023 180.622L137.855 184.473L136.277 220.103Z" fill="#3F3D56"/>
<path opacity="0.2" d="M136.277 220.103L102.348 196.685L134.546 182.189L136.865 181.145L138.023 180.621L137.856 184.474L136.277 220.103Z" fill="black"/>
<path d="M191.609 258.293L105.657 198.97L137.855 184.473L140.173 183.428L182.132 164.535C184.883 163.298 188.388 165.522 188.901 168.616C188.935 168.826 188.955 169.038 188.964 169.251L191.609 258.293Z" fill="#3F3D56"/>
<path d="M274.995 154.09C275.447 151.965 275.278 149.741 274.513 147.723C273.747 145.704 272.421 143.988 270.716 142.807L99.5583 24.6746C98.4693 23.9224 97.2531 23.4082 95.9791 23.1612C94.7052 22.9142 93.3983 22.9393 92.1334 23.2352C90.8685 23.5311 89.6702 24.0918 88.6071 24.8855C87.544 25.6791 86.6369 26.69 85.9376 27.8605L1.55857 168.97C0.149313 171.335 -0.329907 174.203 0.225965 176.946C0.781837 179.689 2.32744 182.083 4.52393 183.604L175.681 301.736C177.882 303.25 180.551 303.765 183.105 303.168C185.658 302.57 187.887 300.91 189.302 298.55L273.681 157.44C274.297 156.414 274.742 155.28 274.995 154.09ZM188.326 297.877C187.078 299.959 185.111 301.425 182.858 301.952C180.605 302.479 178.25 302.024 176.308 300.688L5.15072 182.556C3.21228 181.214 1.84821 179.102 1.35771 176.681C0.867208 174.26 1.29033 171.73 2.53426 169.644L86.9132 28.5339C88.1619 26.4513 90.1284 24.9858 92.3814 24.4588C94.6344 23.9318 96.99 24.3864 98.9315 25.7228L270.089 143.855C272.027 145.196 273.391 147.309 273.882 149.73C274.372 152.15 273.949 154.681 272.705 156.767L188.326 297.877Z" fill="#3F3D56"/>
<path d="M269.362 198.851C268.673 196.801 267.413 195.029 265.753 193.775C264.093 192.521 262.114 191.847 260.085 191.843H56.6514C55.3568 191.843 54.0748 192.116 52.8787 192.648C51.6826 193.18 50.5958 193.96 49.6804 194.944C48.765 195.927 48.0389 197.095 47.5438 198.38C47.0486 199.665 46.794 201.042 46.7945 202.433V370.153C46.7982 372.961 47.8379 375.652 49.6856 377.637C51.5333 379.622 54.0383 380.739 56.6514 380.743H260.085C262.698 380.739 265.203 379.622 267.051 377.637C268.898 375.652 269.938 372.961 269.942 370.153V202.433C269.944 201.212 269.748 200 269.362 198.851V198.851Z" fill="white"/>
<path d="M269.362 198.851C268.673 196.801 267.413 195.029 265.753 193.775C264.093 192.521 262.114 191.847 260.085 191.843H56.6514C55.3568 191.843 54.0748 192.116 52.8787 192.648C51.6826 193.18 50.5958 193.96 49.6804 194.944C48.765 195.927 48.0389 197.095 47.5438 198.38C47.0486 199.665 46.794 201.042 46.7945 202.433V370.153C46.7982 372.961 47.8379 375.652 49.6856 377.637C51.5333 379.622 54.0383 380.739 56.6514 380.743H260.085C262.698 380.739 265.203 379.622 267.051 377.637C268.898 375.652 269.938 372.961 269.942 370.153V202.433C269.944 201.212 269.748 200 269.362 198.851V198.851ZM268.782 370.153C268.779 372.63 267.862 375.005 266.232 376.757C264.601 378.509 262.391 379.494 260.085 379.497H56.6514C54.3456 379.494 52.135 378.509 50.5046 376.757C48.8741 375.005 47.9569 372.63 47.9541 370.153V202.433C47.9569 199.956 48.8741 197.581 50.5046 195.829C52.135 194.078 54.3456 193.092 56.6514 193.089H260.085C262.391 193.092 264.601 194.078 266.232 195.829C267.862 197.581 268.779 199.956 268.782 202.433V370.153Z" fill="#3F3D56"/>
<path d="M254.252 214.412V331.525C254.252 331.912 254.181 332.296 254.044 332.653C253.906 333.011 253.704 333.336 253.449 333.61C253.195 333.884 252.892 334.101 252.559 334.249C252.227 334.397 251.87 334.474 251.51 334.474H66.4591C66.3274 334.475 66.1958 334.464 66.0658 334.441C65.413 334.34 64.816 333.99 64.3842 333.454C63.9524 332.919 63.7147 332.234 63.7147 331.525V214.412C63.7146 214.025 63.7854 213.641 63.9232 213.284C64.0609 212.926 64.2629 212.601 64.5176 212.327C64.7723 212.053 65.0746 211.836 65.4074 211.688C65.7402 211.54 66.097 211.463 66.4573 211.463H251.508C251.868 211.463 252.225 211.539 252.558 211.687C252.891 211.835 253.193 212.052 253.448 212.326C253.703 212.599 253.905 212.924 254.043 213.282C254.181 213.639 254.252 214.023 254.252 214.41V214.412Z" fill="black"/>
<path d="M110.36 281.097C123.658 281.097 134.438 269.515 134.438 255.229C134.438 240.943 123.658 229.362 110.36 229.362C97.063 229.362 86.2832 240.943 86.2832 255.229C86.2832 269.515 97.063 281.097 110.36 281.097Z" fill="#3CC4B8"/>
<path d="M185.864 334.943H67.7483C67.6004 334.946 67.4526 334.933 67.3069 334.906L123.17 230.948C123.511 230.3 124.006 229.762 124.604 229.387C125.202 229.012 125.882 228.815 126.575 228.815C127.267 228.815 127.947 229.012 128.545 229.387C129.143 229.762 129.638 230.3 129.979 230.948L167.47 300.712L169.266 304.05L185.864 334.943Z" fill="#3F3D56"/>
<path opacity="0.2" d="M185.864 334.944H145.536L165.333 304.05L166.758 301.825L167.471 300.712L169.266 304.05L185.864 334.944Z" fill="black"/>
<path d="M251.63 334.943H149.47L169.266 304.05L170.691 301.824L196.488 261.564C198.179 258.926 202.248 258.761 204.236 261.067C204.37 261.224 204.494 261.39 204.608 261.564L251.63 334.943Z" fill="#3F3D56"/>
<path d="M269.362 198.851C268.673 196.801 267.413 195.029 265.753 193.775C264.093 192.521 262.114 191.847 260.085 191.843H56.6514C55.3568 191.843 54.0748 192.116 52.8787 192.648C51.6826 193.18 50.5958 193.96 49.6804 194.944C48.765 195.927 48.0389 197.095 47.5438 198.38C47.0486 199.665 46.794 201.042 46.7945 202.433V370.153C46.7982 372.961 47.8379 375.652 49.6856 377.637C51.5333 379.622 54.0383 380.739 56.6514 380.743H260.085C262.698 380.739 265.203 379.622 267.051 377.637C268.898 375.652 269.938 372.961 269.942 370.153V202.433C269.944 201.212 269.748 200 269.362 198.851V198.851ZM268.782 370.153C268.779 372.63 267.862 375.005 266.232 376.757C264.601 378.509 262.391 379.494 260.085 379.497H56.6514C54.3456 379.494 52.135 378.509 50.5046 376.757C48.8741 375.005 47.9569 372.63 47.9541 370.153V202.433C47.9569 199.956 48.8741 197.581 50.5046 195.829C52.135 194.078 54.3456 193.092 56.6514 193.089H260.085C262.391 193.092 264.601 194.078 266.232 195.829C267.862 197.581 268.779 199.956 268.782 202.433V370.153Z" fill="#3F3D56"/>
</svg>
