<svg width="622" height="486" viewBox="0 0 622 486" fill="none" xmlns="http://www.w3.org/2000/svg">
<rect width="622" height="486" fill="white"/>
<path d="M621.186 486H310.923C310.707 486 310.5 485.908 310.347 485.744C310.194 485.58 310.109 485.357 310.109 485.125C310.109 484.893 310.194 484.671 310.347 484.506C310.5 484.342 310.707 484.25 310.923 484.25H621.186C621.402 484.25 621.609 484.342 621.761 484.506C621.914 484.671 622 484.893 622 485.125C622 485.357 621.914 485.58 621.761 485.744C621.609 485.908 621.402 486 621.186 486Z" fill="#CCCCCC"/>
<path d="M579.559 120.13H578.871C578.007 120.129 577.179 119.759 576.569 119.103C575.958 118.447 575.615 117.558 575.614 116.63V88.8404C575.615 87.9126 575.958 87.0231 576.569 86.367C577.179 85.7109 578.007 85.3419 578.871 85.3408H579.559C580.422 85.3419 581.25 85.7109 581.861 86.367C582.472 87.0231 582.815 87.9126 582.816 88.8404V116.63C582.815 117.558 582.472 118.447 581.861 119.103C581.25 119.759 580.422 120.129 579.559 120.13V120.13Z" fill="#E6E6E6"/>
<path d="M353.238 86.2157H352.55C351.687 86.2147 350.859 85.8456 350.248 85.1896C349.637 84.5335 349.294 83.644 349.293 82.7162V66.6303C349.294 65.7025 349.637 64.813 350.248 64.1569C350.859 63.5008 351.687 63.1318 352.55 63.1307H353.238C354.102 63.1318 354.93 63.5008 355.54 64.1569C356.151 64.813 356.494 65.7025 356.495 66.6303V82.7162C356.494 83.644 356.151 84.5335 355.54 85.1896C354.93 85.8456 354.102 86.2147 353.238 86.2157Z" fill="#E6E6E6"/>
<path d="M353.238 125.383H352.55C351.687 125.382 350.859 125.013 350.248 124.357C349.637 123.701 349.294 122.811 349.293 121.884V105.797C349.294 104.869 349.637 103.98 350.248 103.324C350.859 102.668 351.687 102.299 352.55 102.298H353.238C354.102 102.299 354.93 102.668 355.54 103.324C356.151 103.98 356.494 104.869 356.495 105.797V121.884C356.494 122.811 356.151 123.701 355.54 124.357C354.93 125.013 354.102 125.382 353.238 125.383Z" fill="#E6E6E6"/>
<path d="M548.134 485.106H383.975C376.473 485.097 369.282 481.891 363.977 476.193C358.673 470.494 355.689 462.767 355.681 454.708V31.2725C355.689 23.2134 358.673 15.4869 363.977 9.78821C369.282 4.08952 376.473 0.883994 383.975 0.874878H548.134C555.635 0.88396 562.827 4.08946 568.131 9.78815C573.436 15.4868 576.419 23.2133 576.428 31.2725V454.708C576.419 462.767 573.436 470.494 568.131 476.193C562.827 481.891 555.635 485.097 548.134 485.106V485.106Z" fill="black"/>
<path d="M548.134 485.981H383.975C376.258 485.971 368.859 482.674 363.402 476.811C357.945 470.948 354.875 462.999 354.867 454.708V125.884C354.354 126.13 353.799 126.258 353.238 126.258H352.55C351.471 126.257 350.436 125.795 349.672 124.975C348.909 124.155 348.48 123.043 348.478 121.884V105.797C348.48 104.638 348.909 103.526 349.672 102.706C350.436 101.886 351.471 101.424 352.55 101.423H353.238C353.799 101.423 354.354 101.551 354.867 101.797V86.7168C354.354 86.9628 353.799 87.0902 353.238 87.0906H352.55C351.471 87.0893 350.436 86.628 349.672 85.8079C348.909 84.9878 348.48 83.8759 348.478 82.7162V66.6303C348.48 65.4705 348.909 64.3586 349.672 63.5386C350.436 62.7185 351.471 62.2572 352.55 62.2558H353.238C353.799 62.2563 354.354 62.3836 354.867 62.6296V31.2725C354.875 22.9814 357.945 15.0326 363.402 9.16988C368.859 3.30718 376.258 0.00939439 383.975 0H548.134C555.851 0.00934102 563.25 3.3071 568.707 9.1698C574.164 15.0325 577.234 22.9814 577.243 31.2725V84.8397C577.755 84.5937 578.31 84.4664 578.871 84.4659H579.559C580.638 84.4673 581.673 84.9286 582.436 85.7486C583.2 86.5687 583.629 87.6806 583.63 88.8404V116.63C583.629 117.79 583.2 118.902 582.436 119.722C581.673 120.542 580.638 121.003 579.559 121.004H578.871C578.31 121.004 577.755 120.877 577.243 120.631V454.708C577.234 462.999 574.164 470.948 568.707 476.811C563.25 482.674 555.851 485.971 548.134 485.981V485.981ZM356.495 121.843V454.708C356.504 462.535 359.401 470.04 364.553 475.574C369.705 481.109 376.689 484.222 383.975 484.231H548.134C555.419 484.222 562.404 481.109 567.556 475.574C572.708 470.04 575.606 462.536 575.614 454.708V116.588L577.042 118.345C577.268 118.628 577.549 118.856 577.865 119.013C578.18 119.169 578.523 119.252 578.871 119.255H579.559C580.206 119.254 580.827 118.977 581.285 118.485C581.743 117.993 582.001 117.326 582.002 116.63V88.8404C582.001 88.1445 581.743 87.4774 581.285 86.9853C580.827 86.4932 580.206 86.2165 579.559 86.2157H578.871C578.523 86.2183 578.18 86.3009 577.865 86.4578C577.549 86.6147 577.268 86.8425 577.042 87.1256L575.614 88.8822V31.2725C575.606 23.4453 572.708 15.9411 567.556 10.4065C562.404 4.87178 555.419 1.75855 548.134 1.74977H383.975C376.689 1.7586 369.705 4.87186 364.553 10.4065C359.401 15.9412 356.504 23.4453 356.495 31.2725V66.6709L355.068 64.916C354.841 64.6328 354.56 64.4051 354.245 64.2481C353.929 64.0911 353.586 64.0084 353.238 64.0056H352.55C351.902 64.0064 351.281 64.2832 350.823 64.7752C350.365 65.2673 350.108 65.9344 350.107 66.6303V82.7162C350.108 83.412 350.365 84.0792 350.823 84.5712C351.281 85.0633 351.902 85.3401 352.55 85.3408H353.238C353.586 85.3381 353.929 85.2554 354.245 85.0984C354.56 84.9414 354.841 84.7136 355.068 84.4305L356.495 82.6756V105.838L355.068 104.083C354.841 103.8 354.56 103.572 354.245 103.415C353.929 103.258 353.586 103.175 353.238 103.173H352.55C351.902 103.173 351.281 103.45 350.823 103.942C350.365 104.434 350.108 105.101 350.107 105.797V121.884C350.108 122.579 350.365 123.247 350.823 123.739C351.281 124.231 351.902 124.508 352.55 124.508H353.238C353.586 124.506 353.929 124.423 354.245 124.266C354.56 124.109 354.841 123.881 355.068 123.598L356.495 121.843Z" fill="#3CC4B8"/>
<path d="M440.511 120.13H395.621C388.741 120.121 382.145 117.181 377.28 111.955C372.415 106.728 369.679 99.6414 369.671 92.2498V36.3446C369.679 28.9531 372.415 21.8666 377.28 16.6401C382.145 11.4135 388.741 8.47353 395.621 8.46524H440.511C447.391 8.47353 453.987 11.4135 458.852 16.6401C463.717 21.8666 466.454 28.9531 466.462 36.3446V92.2498C466.454 99.6414 463.717 106.728 458.852 111.955C453.987 117.181 447.391 120.121 440.511 120.13V120.13Z" fill="#3CC4B8"/>
<path d="M440.511 121.004H395.621C388.525 120.996 381.722 117.963 376.705 112.573C371.687 107.182 368.865 99.8733 368.857 92.2498V36.3446C368.865 28.7211 371.687 21.4123 376.705 16.0217C381.722 10.6311 388.525 7.59892 395.621 7.59033H440.511C447.607 7.59892 454.41 10.6311 459.428 16.0217C464.445 21.4123 467.268 28.7211 467.276 36.3446V92.2498C467.268 99.8733 464.445 107.182 459.428 112.573C454.41 117.963 447.607 120.996 440.511 121.004V121.004ZM395.621 9.34009C388.957 9.34819 382.568 12.1959 377.856 17.2584C373.144 22.321 370.493 29.185 370.485 36.3446V92.2498C370.493 99.4094 373.144 106.274 377.856 111.336C382.568 116.399 388.957 119.247 395.621 119.255H440.511C447.176 119.247 453.565 116.399 458.277 111.336C462.989 106.274 465.64 99.4094 465.647 92.2498V36.3446C465.64 29.185 462.989 22.321 458.277 17.2585C453.564 12.1959 447.176 9.3482 440.511 9.34011L395.621 9.34009Z" fill="#CCCCCC"/>
<path d="M466.054 262.609C478.172 262.609 487.995 252.056 487.995 239.037C487.995 226.019 478.172 215.465 466.054 215.465C453.937 215.465 444.114 226.019 444.114 239.037C444.114 252.056 453.937 262.609 466.054 262.609Z" fill="#3CC4B8"/>
<path d="M397.077 52.5321C404.637 52.5321 410.766 45.9478 410.766 37.8256C410.766 29.7033 404.637 23.119 397.077 23.119C389.517 23.119 383.388 29.7033 383.388 37.8256C383.388 45.9478 389.517 52.5321 397.077 52.5321Z" fill="#2F2E41"/>
<path d="M397.077 105.476C404.637 105.476 410.766 98.8914 410.766 90.7692C410.766 82.647 404.637 76.0627 397.077 76.0627C389.517 76.0627 383.388 82.647 383.388 90.7692C383.388 98.8914 389.517 105.476 397.077 105.476Z" fill="#2F2E41"/>
<path d="M439.056 78.7408C446.616 78.7408 452.744 72.1564 452.744 64.0342C452.744 55.912 446.616 49.3277 439.056 49.3277C431.496 49.3277 425.367 55.912 425.367 64.0342C425.367 72.1564 431.496 78.7408 439.056 78.7408Z" fill="#2F2E41"/>
<path d="M397.077 42.9729C399.723 42.9729 401.868 40.6683 401.868 37.8256C401.868 34.9828 399.723 32.6783 397.077 32.6783C394.431 32.6783 392.286 34.9828 392.286 37.8256C392.286 40.6683 394.431 42.9729 397.077 42.9729Z" fill="#B3B3B3"/>
<path d="M397.077 43.8479C395.968 43.8479 394.884 43.4947 393.963 42.833C393.041 42.1713 392.322 41.2307 391.898 40.1303C391.474 39.0299 391.363 37.819 391.579 36.6508C391.795 35.4826 392.329 34.4095 393.113 33.5672C393.897 32.725 394.896 32.1514 395.983 31.919C397.07 31.6866 398.198 31.8058 399.222 32.2616C400.246 32.7174 401.122 33.4893 401.738 34.4796C402.354 35.4699 402.682 36.6343 402.682 37.8254C402.681 39.4221 402.09 40.9529 401.039 42.082C399.988 43.211 398.563 43.8461 397.077 43.8479V43.8479ZM397.077 33.553C396.29 33.553 395.521 33.8036 394.867 34.2731C394.213 34.7426 393.704 35.4099 393.403 36.1906C393.102 36.9713 393.023 37.8304 393.176 38.6592C393.33 39.488 393.709 40.2493 394.265 40.8468C394.821 41.4443 395.53 41.8512 396.301 42.0161C397.072 42.1809 397.872 42.0963 398.599 41.7729C399.325 41.4494 399.947 40.9018 400.384 40.1991C400.82 39.4965 401.054 38.6704 401.054 37.8254C401.052 36.6926 400.633 35.6066 399.888 34.8057C399.142 34.0047 398.131 33.5542 397.077 33.553V33.553Z" fill="#E6E6E6"/>
<path d="M439.056 69.1815C441.702 69.1815 443.847 66.877 443.847 64.0342C443.847 61.1915 441.702 58.8869 439.056 58.8869C436.41 58.8869 434.265 61.1915 434.265 64.0342C434.265 66.877 436.41 69.1815 439.056 69.1815Z" fill="#B3B3B3"/>
<path d="M439.056 70.0566C437.947 70.0566 436.863 69.7034 435.941 69.0417C435.02 68.3799 434.301 67.4394 433.877 66.339C433.453 65.2385 433.341 64.0277 433.558 62.8594C433.774 61.6912 434.308 60.6182 435.092 59.7759C435.876 58.9337 436.875 58.3601 437.962 58.1277C439.049 57.8953 440.176 58.0145 441.201 58.4703C442.225 58.9261 443.1 59.6979 443.716 60.6883C444.332 61.6786 444.661 62.843 444.661 64.0341C444.66 65.6308 444.068 67.1616 443.018 68.2906C441.967 69.4197 440.542 70.0548 439.056 70.0566V70.0566ZM439.056 59.7617C438.269 59.7617 437.5 60.0123 436.846 60.4818C436.192 60.9513 435.682 61.6186 435.381 62.3993C435.08 63.18 435.002 64.0391 435.155 64.8679C435.309 65.6967 435.687 66.458 436.244 67.0555C436.8 67.653 437.508 68.0599 438.28 68.2248C439.051 68.3896 439.851 68.3049 440.578 67.9815C441.304 67.6581 441.925 67.1105 442.362 66.4078C442.799 65.7052 443.033 64.8791 443.032 64.0341C443.031 62.9013 442.612 61.8153 441.866 61.0143C441.121 60.2134 440.11 59.7629 439.056 59.7617V59.7617Z" fill="#E6E6E6"/>
<path d="M397.077 95.9165C399.723 95.9165 401.868 93.612 401.868 90.7692C401.868 87.9264 399.723 85.6219 397.077 85.6219C394.431 85.6219 392.286 87.9264 392.286 90.7692C392.286 93.612 394.431 95.9165 397.077 95.9165Z" fill="#B3B3B3"/>
<path d="M397.077 96.7915C395.968 96.7915 394.884 96.4384 393.963 95.7766C393.041 95.1149 392.322 94.1743 391.898 93.0739C391.474 91.9735 391.363 90.7626 391.579 89.5944C391.795 88.4262 392.329 87.3531 393.113 86.5109C393.897 85.6686 394.896 85.095 395.983 84.8626C397.07 84.6302 398.197 84.7495 399.222 85.2052C400.246 85.661 401.122 86.4329 401.738 87.4232C402.353 88.4136 402.682 89.5779 402.682 90.769C402.681 92.3657 402.09 93.8965 401.039 95.0256C399.988 96.1547 398.563 96.7898 397.077 96.7915ZM397.077 86.4967C396.29 86.4967 395.521 86.7473 394.867 87.2168C394.213 87.6862 393.704 88.3535 393.403 89.1343C393.102 89.915 393.023 90.774 393.176 91.6028C393.33 92.4316 393.709 93.1929 394.265 93.7905C394.821 94.388 395.53 94.7949 396.301 94.9597C397.073 95.1246 397.872 95.0399 398.599 94.7165C399.325 94.3931 399.947 93.8454 400.383 93.1428C400.82 92.4401 401.054 91.614 401.054 90.769C401.052 89.6363 400.633 88.5503 399.888 87.7493C399.142 86.9484 398.131 86.4979 397.077 86.4967V86.4967Z" fill="#E6E6E6"/>
<path d="M254.456 158.407L195.537 256.94C195.342 257.266 195.09 257.547 194.794 257.768C194.498 257.989 194.165 258.145 193.813 258.228C193.46 258.31 193.097 258.317 192.742 258.249C192.388 258.18 192.049 258.037 191.746 257.828L191.744 257.827L36.0549 150.371C35.9436 150.296 35.8384 150.21 35.7406 150.115C35.2422 149.651 34.9161 149.01 34.8222 148.308C34.7283 147.607 34.8728 146.893 35.2293 146.297L94.1485 47.764C94.3432 47.4382 94.5956 47.1569 94.8915 46.936C95.1873 46.715 95.5207 46.5589 95.8727 46.4764C96.2248 46.394 96.5884 46.3868 96.943 46.4553C97.2976 46.5239 97.6362 46.6668 97.9394 46.8759L97.9409 46.8769L253.63 154.333C253.933 154.542 254.195 154.813 254.401 155.131C254.607 155.449 254.752 155.807 254.829 156.185C254.905 156.564 254.912 156.954 254.848 157.335C254.785 157.716 254.652 158.08 254.457 158.406L254.456 158.407Z" fill="#B3B3B3"/>
<path d="M112.859 135.06C126.156 135.06 136.936 123.479 136.936 109.192C136.936 94.9061 126.156 83.3248 112.859 83.3248C99.5611 83.3248 88.7813 94.9061 88.7813 109.192C88.7813 123.479 99.5611 135.06 112.859 135.06Z" fill="#3CC4B8"/>
<path d="M136.279 220.103L36.9033 151.515C36.7779 151.431 36.6599 151.334 36.5509 151.227L135.852 96.2017C136.464 95.8549 137.152 95.6891 137.843 95.7211C138.535 95.7531 139.207 95.9819 139.789 96.3839C140.372 96.786 140.844 97.347 141.159 98.0096C141.474 98.6722 141.619 99.4127 141.58 100.155L138.025 180.622L137.857 184.473L136.279 220.103Z" fill="#3F3D56"/>
<path opacity="0.2" d="M136.279 220.103L102.35 196.685L134.548 182.189L136.867 181.145L138.025 180.621L137.858 184.474L136.279 220.103Z" fill="black"/>
<path d="M191.611 258.293L105.659 198.97L137.857 184.473L140.175 183.428L182.134 164.536C184.884 163.298 188.39 165.522 188.903 168.616C188.937 168.826 188.957 169.038 188.966 169.251L191.611 258.293Z" fill="#3F3D56"/>
<path d="M274.997 154.09C275.449 151.965 275.28 149.741 274.515 147.723C273.749 145.704 272.423 143.988 270.718 142.807L99.5602 24.6746C98.4713 23.9224 97.2551 23.4082 95.9811 23.1612C94.7071 22.9142 93.4003 22.9393 92.1354 23.2352C90.8705 23.5311 89.6722 24.0918 88.6091 24.8855C87.546 25.6791 86.6388 26.69 85.9395 27.8605L1.56055 168.97C0.151297 171.335 -0.327923 174.203 0.227949 176.946C0.783821 179.689 2.32942 182.083 4.52591 183.604L175.683 301.736C177.884 303.25 180.553 303.765 183.107 303.168C185.66 302.57 187.889 300.91 189.304 298.55L273.683 157.44C274.299 156.414 274.744 155.28 274.997 154.09ZM188.328 297.877C187.08 299.959 185.113 301.425 182.86 301.952C180.607 302.479 178.252 302.024 176.31 300.688L5.15271 182.556C3.21426 181.214 1.85019 179.102 1.35969 176.681C0.869191 174.26 1.29231 171.73 2.53624 169.644L86.9152 28.5339C88.1638 26.4513 90.1303 24.9858 92.3834 24.4588C94.6364 23.9318 96.992 24.3864 98.9335 25.7228L270.091 143.855C272.029 145.196 273.393 147.309 273.884 149.73C274.374 152.15 273.951 154.681 272.707 156.767L188.328 297.877Z" fill="#3F3D56"/>
<path d="M269.364 198.851C268.675 196.801 267.415 195.029 265.755 193.775C264.095 192.521 262.116 191.847 260.087 191.843H56.6533C55.3588 191.843 54.0768 192.116 52.8807 192.648C51.6846 193.18 50.5978 193.96 49.6824 194.944C48.767 195.927 48.0409 197.095 47.5457 198.38C47.0506 199.665 46.7959 201.042 46.7964 202.433V370.153C46.8001 372.961 47.8398 375.652 49.6876 377.637C51.5353 379.622 54.0403 380.739 56.6533 380.743H260.087C262.7 380.739 265.205 379.622 267.053 377.637C268.9 375.652 269.94 372.961 269.944 370.153V202.433C269.946 201.212 269.75 200 269.364 198.851V198.851Z" fill="white"/>
<path d="M269.364 198.851C268.675 196.801 267.415 195.029 265.755 193.775C264.095 192.521 262.116 191.847 260.087 191.843H56.6533C55.3588 191.843 54.0768 192.116 52.8807 192.648C51.6846 193.18 50.5978 193.96 49.6824 194.944C48.767 195.927 48.0409 197.095 47.5457 198.38C47.0506 199.665 46.7959 201.042 46.7964 202.433V370.153C46.8001 372.961 47.8398 375.652 49.6876 377.637C51.5353 379.622 54.0403 380.739 56.6533 380.743H260.087C262.7 380.739 265.205 379.622 267.053 377.637C268.9 375.652 269.94 372.961 269.944 370.153V202.433C269.946 201.212 269.75 200 269.364 198.851V198.851ZM268.784 370.153C268.781 372.63 267.864 375.005 266.234 376.757C264.603 378.509 262.393 379.494 260.087 379.497H56.6533C54.3475 379.494 52.137 378.509 50.5066 376.757C48.8761 375.005 47.9589 372.63 47.9561 370.153V202.433C47.9589 199.956 48.8761 197.581 50.5066 195.829C52.137 194.078 54.3475 193.092 56.6533 193.089H260.087C262.393 193.092 264.603 194.078 266.234 195.829C267.864 197.581 268.781 199.956 268.784 202.433V370.153Z" fill="#3F3D56"/>
<path d="M254.254 214.412V331.525C254.254 331.912 254.183 332.296 254.046 332.653C253.908 333.011 253.706 333.336 253.451 333.61C253.197 333.884 252.894 334.101 252.561 334.249C252.229 334.397 251.872 334.474 251.512 334.474H66.4611C66.3294 334.475 66.1978 334.464 66.0678 334.441C65.415 334.34 64.818 333.99 64.3862 333.454C63.9544 332.919 63.7167 332.234 63.7167 331.525V214.412C63.7166 214.025 63.7874 213.641 63.9252 213.284C64.0629 212.926 64.2649 212.601 64.5196 212.327C64.7743 212.053 65.0766 211.836 65.4094 211.688C65.7422 211.54 66.099 211.463 66.4592 211.463H251.51C251.87 211.463 252.227 211.539 252.56 211.687C252.893 211.835 253.195 212.052 253.45 212.326C253.705 212.599 253.907 212.924 254.045 213.282C254.183 213.639 254.254 214.023 254.254 214.41V214.412Z" fill="#B3B3B3"/>
<path d="M110.362 281.097C123.66 281.097 134.44 269.515 134.44 255.229C134.44 240.943 123.66 229.362 110.362 229.362C97.065 229.362 86.2852 240.943 86.2852 255.229C86.2852 269.515 97.065 281.097 110.362 281.097Z" fill="#3CC4B8"/>
<path d="M185.866 334.943H67.7502C67.6024 334.946 67.4546 334.933 67.3089 334.906L123.172 230.948C123.513 230.3 124.008 229.762 124.606 229.387C125.204 229.012 125.884 228.815 126.577 228.815C127.269 228.815 127.949 229.012 128.547 229.387C129.145 229.762 129.64 230.3 129.981 230.948L167.472 300.712L169.268 304.05L185.866 334.943Z" fill="#3F3D56"/>
<path opacity="0.2" d="M185.866 334.944H145.538L165.335 304.05L166.76 301.825L167.473 300.712L169.268 304.05L185.866 334.944Z" fill="black"/>
<path d="M251.632 334.943H149.472L169.268 304.05L170.693 301.824L196.49 261.564C198.181 258.926 202.25 258.761 204.238 261.067C204.372 261.224 204.496 261.39 204.61 261.564L251.632 334.943Z" fill="#3F3D56"/>
<path d="M269.364 198.851C268.675 196.801 267.415 195.029 265.755 193.775C264.095 192.521 262.116 191.847 260.087 191.843H56.6533C55.3588 191.843 54.0768 192.116 52.8807 192.648C51.6846 193.18 50.5978 193.96 49.6824 194.944C48.767 195.927 48.0409 197.095 47.5457 198.38C47.0506 199.665 46.7959 201.042 46.7964 202.433V370.153C46.8001 372.961 47.8398 375.652 49.6876 377.637C51.5353 379.622 54.0403 380.739 56.6533 380.743H260.087C262.7 380.739 265.205 379.622 267.053 377.637C268.9 375.652 269.94 372.961 269.944 370.153V202.433C269.946 201.212 269.75 200 269.364 198.851V198.851ZM268.784 370.153C268.781 372.63 267.864 375.005 266.234 376.757C264.603 378.509 262.393 379.494 260.087 379.497H56.6533C54.3475 379.494 52.137 378.509 50.5066 376.757C48.8761 375.005 47.9589 372.63 47.9561 370.153V202.433C47.9589 199.956 48.8761 197.581 50.5066 195.829C52.137 194.078 54.3475 193.092 56.6533 193.089H260.087C262.393 193.092 264.603 194.078 266.234 195.829C267.864 197.581 268.781 199.956 268.784 202.433V370.153Z" fill="#3F3D56"/>
</svg>
